<svg xmlns="http://www.w3.org/2000/svg" xmlns:xlink="http://www.w3.org/1999/xlink" xmlns:inkscape="http://www.inkscape.org/namespaces/inkscape" version="1.1" width="314" height="88" viewBox="0 0 314 88">
<defs>
<path id="font_1_1" d="M.30299378 .3157959H.47299195C.61499026 .3157959 .7539978 .41973878 .7539978 .53167727 .7539978 .6086273 .6879883 .6826172 .5569916 .6826172H.23298645C.21398926 .6826172 .20298767 .6826172 .20298767 .66360476 .20298767 .6516113 .21199036 .6516113 .23199463 .6516113 .24499512 .6516113 .2630005 .65060427 .2749939 .6496124 .29100038 .6476135 .29699708 .64460757 .29699708 .6336212 .29699708 .6296234 .29599 .62661746 .29299928 .614624L.15899658 .07795715C.14898682 .038986207 .14698792 .0309906 .067993167 .0309906 .050994874 .0309906 .039993287 .0309906 .039993287 .011993408 .039993287 0 .051986696 0 .054992677 0 .08299255 0 .1539917 .0029907227 .18199158 .0029907227 .20298767 .0029907227 .22499085 .0019989014 .24598694 .0019989014 .2679901 .0019989014 .2899933 0 .31098939 0 .31799317 0 .33099366 0 .33099366 .019989014 .33099366 .0309906 .32199098 .0309906 .30299378 .0309906 .2659912 .0309906 .23799134 .0309906 .23799134 .048980714 .23799134 .054977418 .23999024 .05996704 .24099732 .065963748L.30299378 .3157959M.375 .6136322C.38398744 .64860537 .38598634 .6516113 .42900086 .6516113H.5249939C.60798647 .6516113 .6609955 .62461856 .6609955 .55566409 .6609955 .5166931 .6409912 .43074037 .60198977 .39476014 .5519867 .34977723 .49198915 .34179688 .44799806 .34179688H.30699159L.375 .6136322Z"/>
<path id="font_2_1" d="M.5159912 .31925965C.5159912 .42918397 .5029907 .50813296 .45700074 .5780945 .42599488 .62405398 .3639984 .6640625 .28399659 .6640625 .051986696 .6640625 .051986696 .39120484 .051986696 .31925965 .051986696 .2472992 .051986696-.01953125 .28399659-.01953125 .5159912-.01953125 .5159912 .2472992 .5159912 .31925965M.28399659 .008468628C.23799134 .008468628 .1769867 .035446168 .15699768 .117385867 .14299011 .17634583 .14299011 .25830079 .14299011 .33224488 .14299011 .40519715 .14299011 .4811554 .1579895 .53611758 .1789856 .6150665 .24299622 .63604739 .28399659 .63604739 .33799745 .63604739 .3899994 .6030731 .4079895 .545105 .42399598 .4911499 .4249878 .41918946 .4249878 .33224488 .4249878 .25830079 .4249878 .18434143 .4119873 .12138367 .3919983 .030441285 .32398988 .008468628 .28399659 .008468628Z"/>
<path id="font_2_2" d="M.33499146 .63612368C.33499146 .6630554 .33299256 .6640625 .30499269 .6640625 .24099732 .6014404 .1499939 .6004486 .10899353 .6004486V.5644531C.1329956 .5644531 .19898987 .5644531 .2539978 .592453V.08203125C.2539978 .04899597 .2539978 .035995485 .1539917 .035995485H.115997318V0C.13398743 .0009918213 .25698854 .0039978029 .2939911 .0039978029 .32499696 .0039978029 .45098878 .0009918213 .47299195 0V.035995485H.43499757C.33499146 .035995485 .33499146 .04899597 .33499146 .08203125V.63612368Z"/>
<path id="font_2_3" d="M.5049896 .18203736H.47099305C.46798707 .16001892 .45799256 .100997928 .44499208 .09098816 .43699647 .084991458 .3600006 .084991458 .34599305 .084991458H.1619873C.2669983 .17803955 .3019867 .20603943 .3619995 .25306703 .43598939 .312088 .5049896 .374115 .5049896 .46914674 .5049896 .5900879 .39898683 .6640625 .2709961 .6640625 .14698792 .6640625 .06298828 .57710269 .06298828 .4851532 .06298828 .43414308 .10598755 .42915345 .115997318 .42915345 .13999939 .42915345 .16899109 .44615174 .16899109 .48214723 .16899109 .5001526 .1619873 .53515627 .10998535 .53515627 .14099121 .6060791 .20899964 .62805178 .2559967 .62805178 .35598756 .62805178 .4079895 .5501404 .4079895 .46914674 .4079895 .38212586 .34599305 .3130951 .31399537 .27708436L.07299805 .038986207C.06298828 .02999878 .06298828 .027999878 .06298828 0H.47499085L.5049896 .18203736Z"/>
<path id="font_2_4" d="M.272995 .33428956C.35099793 .33428956 .40699769 .2803192 .40699769 .1733551 .40699769 .04940796 .33499146 .012466431 .2769928 .012466431 .23699951 .012466431 .14898682 .0234375 .10699463 .082351688 .1539917 .084350589 .16499329 .11735535 .16499329 .13835144 .16499329 .17034912 .14099121 .19335938 .10998535 .19335938 .08198547 .19335938 .053985597 .17634583 .053985597 .13534546 .053985597 .041412355 .1579895-.01953125 .2789917-.01953125 .41799928-.01953125 .5139923 .07336426 .5139923 .1733551 .5139923 .2513275 .44999696 .32929994 .33999635 .35229493 .44499208 .39024354 .48298646 .4650879 .48298646 .5260773 .48298646 .60505679 .3919983 .6640625 .2809906 .6640625 .16999817 .6640625 .084991458 .61006167 .084991458 .5300751 .084991458 .49606324 .10699463 .47706605 .13699341 .47706605 .16799927 .47706605 .18798828 .5000763 .18798828 .5280762 .18798828 .5570679 .16799927 .57806399 .13699341 .5800781 .17199707 .62405398 .24099732 .63505557 .27799989 .63505557 .32299806 .63505557 .38598634 .6130676 .38598634 .5260773 .38598634 .48406983 .37199403 .43814088 .34599305 .4072113 .31298829 .36927796 .2849884 .3672943 .23498535 .36428834 .20999146 .3623047 .20799256 .3623047 .20298767 .3612976 .20098877 .3612976 .19299317 .3592987 .19299317 .34829713 .19299317 .33428956 .20199585 .33428956 .21899414 .33428956H.272995Z"/>
<path id="font_2_5" d="M.5289917 .1640625V.20005799H.41799928V.64582827C.41799928 .66682437 .41799928 .6738281 .3959961 .6738281 .38398744 .6738281 .37998963 .6738281 .36999513 .65982058L.038986207 .20005799V.1640625H.33299256V.08201599C.33299256 .04800415 .33299256 .035995485 .2519989 .035995485H.22499085V0C.2749939 .0019989014 .33898927 .0039978029 .375 .0039978029 .4119873 .0039978029 .47599793 .0019989014 .526001 0V.035995485H.49899293C.41799928 .035995485 .41799928 .04800415 .41799928 .08201599V.1640625H.5289917M.33999635 .5658722V.20005799H.07598877L.33999635 .5658722Z"/>
<path id="font_3_35" d="M.5209961 .2163086C.5209961 .34335328 .4229889 .4423828 .30899049 .4423828 .23098755 .4423828 .18798828 .39537049 .17199707 .3773651V.69433596L.027999878 .68333438V.6523285C.09799194 .6523285 .10598755 .6453247 .10598755 .596344V.00024414063H.1309967L.16699219 .06227112C.18199158 .039260866 .22399903-.0107421879 .2979889-.0107421879 .4169922-.0107421879 .5209961 .08728027 .5209961 .2163086M.43798829 .21731568C.43798829 .18029785 .43598939 .120285037 .40699769 .07527161 .38598634 .044265748 .34799195 .011245728 .2939911 .011245728 .24899292 .011260986 .21299744 .03526306 .18899536 .072265628 .1749878 .09326172 .1749878 .09625244 .1749878 .11425781V.32034303C.1749878 .3393402 .1749878 .3403473 .18598938 .35635377 .22499085 .41236878 .27999879 .42037965 .3039856 .42037965 .34899903 .42037965 .3849945 .3943634 .40899659 .35635377 .43499757 .31533814 .43798829 .25831605 .43798829 .21730042V.21731568Z"/>
<path id="font_3_66" d="M.24699402 0V.0309906C.18099976 .0309906 .1769867 .035995485 .1769867 .075042728V.4423828L.036987306 .43066407V.3996582C.101989749 .3996582 .11099243 .3936615 .11099243 .3447113V.07595825C.11099243 .0309906 .099990848 .0309906 .032989503 .0309906V0L.14299011 .0029907227C.17799378 .0029907227 .21299744 .0009918213 .24699402 0M.19198609 .603775C.19198609 .6307678 .16899109 .6567688 .13899231 .6567688 .10499573 .6567688 .084991458 .6287689 .084991458 .603775 .084991458 .57676699 .10798645 .55078127 .13798523 .55078127 .17199707 .55078127 .19198609 .5787811 .19198609 .603775Z"/>
<path id="font_3_96" d="M.3639984 .38137818C.3639984 .41337586 .33299256 .4423828 .2899933 .4423828 .21699524 .4423828 .18099976 .37538148 .16699219 .3323822V.4423828L.027999878 .43066407V.3996582C.09799194 .3996582 .10598755 .39266969 .10598755 .34370423V.07595825C.10598755 .0309906 .09498596 .0309906 .027999878 .0309906V0L.14199829 .0029907227C.18199158 .0029907227 .22898865 .0029907227 .2689972 0V.0309906H.24798584C.17399597 .0309906 .17199707 .04197693 .17199707 .07795715V.23181153C.17199707 .33137513 .21398926 .42037965 .2899933 .42037965 .29699708 .42037965 .29899598 .42037965 .30099488 .41937257 .2979889 .41838075 .27799989 .40637208 .27799989 .3803711 .27799989 .35237123 .29899598 .33737184 .32099916 .33737184 .33898927 .33737184 .3639984 .3493805 .3639984 .38137818Z"/>
<path id="font_3_105" d="M.33198548 .12385559V.18066406H.30699159V.12585449C.30699159 .052108766 .2769928 .014251709 .23999024 .014251709 .17298889 .014251709 .17298889 .10491943 .17298889 .12187195V.3996582H.31599427V.43066407H.17298889V.6142578H.147995C.14698792 .5324249 .116989139 .42565919 .018997193 .42166139V.3996582H.10398865V.12408447C.10398865 .0012512207 .19699097-.0107421879 .23298645-.0107421879 .3039856-.0107421879 .33198548 .060180665 .33198548 .12408447V.12385559Z"/>
<path id="font_3_63" d="M.5349884 0V.0309906C.48298646 .0309906 .45799256 .0309906 .45700074 .061019899V.25221253C.45700074 .3383026 .45700074 .36932374 .42599488 .405365 .4119873 .42237855 .3789978 .4423828 .32099916 .4423828 .23699951 .4423828 .19299317 .38233949 .1769867 .34629823H.17599488V.69433596L.03199768 .6826172V.6516113C.101989749 .6516113 .10998535 .64463809 .10998535 .59580996V.076034549C.10998535 .0309906 .09899902 .0309906 .03199768 .0309906V0L.14498902 .0029907227 .25698854 0V.0309906C.18998719 .0309906 .1789856 .0309906 .1789856 .076034549V.2602234C.1789856 .36431886 .25 .42037965 .31399537 .42037965 .3769989 .42037965 .3880005 .36631776 .3880005 .30926515V.076034549C.3880005 .0309906 .3769989 .0309906 .30999757 .0309906V0L.4229889 .0029907227 .5349884 0Z"/>
<path id="font_3_28" d="M.48298646 .08912659V.14511109H.45799256V.08912659C.45799256 .03112793 .43299867 .025131226 .42199708 .025131226 .3889923 .025131226 .3849945 .070129398 .3849945 .07511902V.27508546C.3849945 .31707765 .3849945 .3560791 .34899903 .39312745 .30999757 .43223573 .2599945 .4482422 .21199036 .4482422 .12998963 .4482422 .06098938 .40115357 .06098938 .335083 .06098938 .30508424 .08099365 .28808595 .10699463 .28808595 .1349945 .28808595 .15299988 .30807496 .15299988 .33407594 .15299988 .3460846 .147995 .37908937 .101989749 .38008119 .1289978 .41519166 .17799378 .426239 .20999146 .426239 .25898744 .426239 .31599427 .38710023 .31599427 .29808045V.26107789C.2649994 .25808717 .19499207 .25508119 .13198853 .22509766 .056991579 .19110108 .03199768 .13911438 .03199768 .09512329 .03199768 .014251709 .1289978-.0107421879 .19198609-.0107421879 .2579956-.0107421879 .3039856 .029251099 .32299806 .07624817 .32699586 .036132814 .35398866-.005859375 .40098573-.005859375 .42199708-.005859375 .48298646 .008132935 .48298646 .08912659M.31599427 .14013672C.31599427 .04525757 .24398804 .011245728 .19898987 .011245728 .1499939 .011245728 .10899353 .04624939 .10899353 .09625244 .10899353 .15124512 .15098572 .23425293 .31599427 .24024964V.14013672Z"/>
<path id="font_3_59" d="M.4850006 .40411378C.4850006 .42111207 .47299195 .453125 .43399049 .453125 .4139862 .453125 .36999513 .44711305 .32798768 .40611268 .28599549 .43937684 .24398804 .4423828 .22200012 .4423828 .1289978 .4423828 .05999756 .37338258 .05999756 .29638673 .05999756 .25239564 .08198547 .21440125 .10699463 .19340515 .09399414 .17840576 .07598877 .14538574 .07598877 .11035156 .07598877 .07899475 .08898926 .04083252 .11999512 .020828248 .05999756 .003829956 .027999878-.039138795 .027999878-.07911682 .027999878-.15107727 .1269989-.20605469 .24899292-.20605469 .36698915-.20605469 .47099305-.15507508 .47099305-.07711792 .47099305-.042144777 .45700074 .008834839 .4059906 .036834718 .35299684 .064834598 .29499818 .064834598 .23399353 .064834598 .20899964 .064834598 .1659851 .064834598 .15899658 .065841678 .1269989 .069885257 .10598755 .101242069 .10598755 .13334656 .10598755 .13735962 .10598755 .16040039 .12298584 .18040467 .1619873 .15240479 .20298767 .14941406 .22200012 .14941406 .31498719 .14941406 .38398744 .21839905 .38398744 .2953949 .38398744 .3323822 .36799623 .36938478 .34298707 .39237977 .3789978 .42637635 .4149933 .43138124 .43299867 .43138124 .43299867 .43112184 .43998719 .43112184 .44299317 .43011476 .43199159 .42611695 .4269867 .41513063 .4269867 .40315248 .4269867 .38616944 .43998719 .37417604 .45599366 .37417604 .46598817 .37417604 .4850006 .3811798 .4850006 .4041443V.40411378M.30899049 .29626466C.30899049 .26930238 .30799867 .2373352 .29299928 .21235657 .2849884 .20037842 .2619934 .17240906 .22200012 .17240906 .1349945 .17240906 .1349945 .2722931 .1349945 .29527284 .1349945 .3222351 .13598633 .35420228 .15098572 .3791809 .15899658 .3913269 .18199158 .41937257 .22200012 .41937257 .30899049 .41937257 .30899049 .31922914 .30899049 .29618836V.29626466M.4189911-.07911682C.4189911-.13308716 .34799195-.18305969 .25-.18305969 .14898682-.18305969 .07998657-.13209534 .07998657-.07911682 .07998657-.03314209 .117996219 .003829956 .1619873 .0068359377H.22099304C.30699159 .0068359377 .4189911 .0068359377 .4189911-.07911682Z"/>
<path id="font_3_50" d="M.4149933 .11933899C.4149933 .12934876 .40699769 .13134766 .4019928 .13134766 .3929901 .13134766 .3909912 .12535095 .3889923 .11734009 .35398866 .014251709 .2639923 .014251709 .2539978 .014251709 .20399475 .014251709 .1639862 .044281007 .14099121 .08131409 .11099243 .12934876 .11099243 .19540406 .11099243 .23144531H.3899994C.4119873 .23144531 .4149933 .23144531 .4149933 .2524414 .4149933 .35131837 .36099244 .4482422 .23599243 .4482422 .11999512 .4482422 .027999878 .34532167 .027999878 .22042847 .027999878 .08631897 .1329956-.0107421879 .24798584-.0107421879 .36999513-.0107421879 .4149933 .10032654 .4149933 .11933899M.34899903 .2524414H.11199951C.117996219 .40126039 .20199585 .426239 .23599243 .426239 .33898927 .426239 .34899903 .2913971 .34899903 .2524414Z"/>
<path id="font_3_47" d="M.5269928 0V.0309906C.45700074 .0309906 .44898988 .038009645 .44898988 .0871582V.69433596L.30499269 .6826172V.6516113C.375 .6516113 .3829956 .64463809 .3829956 .59580996V.38035584C.35398866 .41636659 .31098939 .4423828 .25698854 .4423828 .13899231 .4423828 .033996583 .3443451 .033996583 .21531677 .033996583 .088272098 .13198853-.0107421879 .24598694-.0107421879 .30999757-.0107421879 .35499574 .023254395 .37998963 .055267335V-.0107421879L.5269928 0M.37998963 .117996219C.37998963 .099990848 .37998963 .09799194 .36898805 .08099365 .33898927 .033218385 .2939911 .011245728 .25099183 .011245728 .20599365 .011245728 .16999817 .037216188 .1459961 .075164798 .11999512 .1161499 .116989139 .17320252 .116989139 .21421814 .116989139 .25125123 .11898804 .31129457 .147995 .35632325 .16899109 .38734437 .20698548 .42037965 .26098634 .42037965 .29599 .42037965 .33799745 .405365 .36898805 .3603363 .37998963 .34332276 .37998963 .34132386 .37998963 .32330323V.117996219Z"/>
</defs>
<path transform="matrix(1.00005,0,0,-1.00005,1.7314835,43.49512)" stroke-width=".3985" stroke-linecap="butt" stroke-miterlimit="10" stroke-linejoin="miter" fill="none" stroke="#000000" d=""/>
<path transform="matrix(1.00005,0,0,-1.00005,1.7314835,43.49512)" d="M41.74947-14.94415H71.63777V14.94415H41.74947Z" fill="#ffffff"/>
<path transform="matrix(1.00005,0,0,-1.00005,1.7314835,43.49512)" stroke-width=".3985" stroke-linecap="butt" stroke-miterlimit="10" stroke-linejoin="miter" fill="none" stroke="#000000" d="M41.74947-14.94415H71.63777V14.94415H41.74947Z"/>
<use data-text="P" xlink:href="#font_1_1" transform="matrix(9.963098,0,0,-9.963098,52.995046,46.152254)"/>
<use data-text="0" xlink:href="#font_2_1" transform="matrix(6.9741489,0,0,-6.9741489,59.39136,47.646329)"/>
<path transform="matrix(1.00005,0,0,-1.00005,1.7314835,43.49512)" d="M98.44308-14.94415H128.33138V14.94415H98.44308Z" fill="#ffffff"/>
<path transform="matrix(1.00005,0,0,-1.00005,1.7314835,43.49512)" stroke-width=".3985" stroke-linecap="butt" stroke-miterlimit="10" stroke-linejoin="miter" fill="none" stroke="#000000" d="M98.44308-14.94415H128.33138V14.94415H98.44308Z"/>
<use data-text="P" xlink:href="#font_1_1" transform="matrix(9.963098,0,0,-9.963098,109.69088,46.152254)"/>
<use data-text="1" xlink:href="#font_2_2" transform="matrix(6.9741489,0,0,-6.9741489,116.0872,47.646329)"/>
<path transform="matrix(1.00005,0,0,-1.00005,1.7314835,43.49512)" d="M155.1367-14.94415H185.02501V14.94415H155.1367Z" fill="#ffffff"/>
<path transform="matrix(1.00005,0,0,-1.00005,1.7314835,43.49512)" stroke-width=".3985" stroke-linecap="butt" stroke-miterlimit="10" stroke-linejoin="miter" fill="none" stroke="#000000" d="M155.1367-14.94415H185.02501V14.94415H155.1367Z"/>
<use data-text="P" xlink:href="#font_1_1" transform="matrix(9.963098,0,0,-9.963098,166.3877,46.152254)"/>
<use data-text="2" xlink:href="#font_2_3" transform="matrix(6.9741489,0,0,-6.9741489,172.78403,47.646329)"/>
<path transform="matrix(1.00005,0,0,-1.00005,1.7314835,43.49512)" d="M211.83032-14.94415H241.71863V14.94415H211.83032Z" fill="#ffffff"/>
<path transform="matrix(1.00005,0,0,-1.00005,1.7314835,43.49512)" stroke-width=".3985" stroke-linecap="butt" stroke-miterlimit="10" stroke-linejoin="miter" fill="none" stroke="#000000" d="M211.83032-14.94415H241.71863V14.94415H211.83032Z"/>
<use data-text="P" xlink:href="#font_1_1" transform="matrix(9.963098,0,0,-9.963098,223.08454,46.152254)"/>
<use data-text="3" xlink:href="#font_2_4" transform="matrix(6.9741489,0,0,-6.9741489,229.48087,47.646329)"/>
<path transform="matrix(1.00005,0,0,-1.00005,1.7314835,43.49512)" d="M268.52394-14.94415H298.41224V14.94415H268.52394Z" fill="#ffffff"/>
<path transform="matrix(1.00005,0,0,-1.00005,1.7314835,43.49512)" stroke-width=".3985" stroke-linecap="butt" stroke-miterlimit="10" stroke-linejoin="miter" fill="none" stroke="#000000" d="M268.52394-14.94415H298.41224V14.94415H268.52394Z"/>
<use data-text="P" xlink:href="#font_1_1" transform="matrix(9.963098,0,0,-9.963098,279.78038,46.152254)"/>
<use data-text="4" xlink:href="#font_2_5" transform="matrix(6.9741489,0,0,-6.9741489,286.1767,47.646329)"/>
<path transform="matrix(1.00005,0,0,-1.00005,1.7314835,43.49512)" stroke-width=".3985" stroke-linecap="butt" stroke-miterlimit="10" stroke-linejoin="miter" fill="none" stroke="#000000" d="M0 0H37.96367"/>
<path transform="matrix(1.00005,0,0,-1.00005,39.69705,43.49512)" d="M3.58653 0C2.52383 .19925 .797 .797-.3985 1.49438V-1.49438C.797-.797 2.52383-.19925 3.58653 0"/>
<use data-text="b" xlink:href="#font_3_35" transform="matrix(9.963098,0,0,-9.963098,11.692986,39.86594)"/>
<use data-text="i" xlink:href="#font_3_66" transform="matrix(9.963098,0,0,-9.963098,17.232476,39.86594)"/>
<use data-text="r" xlink:href="#font_3_96" transform="matrix(9.963098,0,0,-9.963098,20.002213,39.86594)"/>
<use data-text="t" xlink:href="#font_3_105" transform="matrix(9.963098,0,0,-9.963098,23.907746,39.86594)"/>
<use data-text="h" xlink:href="#font_3_63" transform="matrix(9.963098,0,0,-9.963098,27.783394,39.86594)"/>
<path transform="matrix(1.00005,0,0,-1.00005,1.7314835,43.49512)" stroke-width=".3985" stroke-linecap="butt" stroke-miterlimit="10" stroke-linejoin="miter" fill="none" stroke="#000000" d="M71.83702 0H94.65729"/>
<path transform="matrix(1.00005,0,0,-1.00005,96.3935,43.49512)" d="M3.58653 0C2.52383 .19925 .797 .797-.3985 1.49438V-1.49438C.797-.797 2.52383-.19925 3.58653 0"/>
<use data-text="a" xlink:href="#font_3_28" transform="matrix(9.963098,0,0,-9.963098,79.582378,37.922845)"/>
<use data-text="g" xlink:href="#font_3_59" transform="matrix(9.963098,0,0,-9.963098,84.56393,37.922845)"/>
<use data-text="e" xlink:href="#font_3_50" transform="matrix(9.963098,0,0,-9.963098,89.54548,37.922845)"/>
<path transform="matrix(1.00005,0,0,-1.00005,1.7314835,43.49512)" stroke-width=".3985" stroke-linecap="butt" stroke-miterlimit="10" stroke-linejoin="miter" fill="none" stroke="#000000" d="M128.53064 0H151.3509"/>
<path transform="matrix(1.00005,0,0,-1.00005,153.08994,43.49512)" d="M3.58653 0C2.52383 .19925 .797 .797-.3985 1.49438V-1.49438C.797-.797 2.52383-.19925 3.58653 0"/>
<use data-text="a" xlink:href="#font_3_28" transform="matrix(9.963098,0,0,-9.963098,136.2792,37.922845)"/>
<use data-text="g" xlink:href="#font_3_59" transform="matrix(9.963098,0,0,-9.963098,141.26074,37.922845)"/>
<use data-text="e" xlink:href="#font_3_50" transform="matrix(9.963098,0,0,-9.963098,146.24231,37.922845)"/>
<path transform="matrix(1.00005,0,0,-1.00005,1.7314835,43.49512)" stroke-width=".3985" stroke-linecap="butt" stroke-miterlimit="10" stroke-linejoin="miter" fill="none" stroke="#000000" d="M185.22426 0H208.04453"/>
<path transform="matrix(1.00005,0,0,-1.00005,209.7864,43.49512)" d="M3.58653 0C2.52383 .19925 .797 .797-.3985 1.49438V-1.49438C.797-.797 2.52383-.19925 3.58653 0"/>
<use data-text="a" xlink:href="#font_3_28" transform="matrix(9.963098,0,0,-9.963098,192.97605,37.922845)"/>
<use data-text="g" xlink:href="#font_3_59" transform="matrix(9.963098,0,0,-9.963098,197.95758,37.922845)"/>
<use data-text="e" xlink:href="#font_3_50" transform="matrix(9.963098,0,0,-9.963098,202.93915,37.922845)"/>
<path transform="matrix(1.00005,0,0,-1.00005,1.7314835,43.49512)" stroke-width=".3985" stroke-linecap="butt" stroke-miterlimit="10" stroke-linejoin="miter" fill="none" stroke="#000000" d="M241.91788 0H264.73814"/>
<path transform="matrix(1.00005,0,0,-1.00005,266.48283,43.49512)" d="M3.58653 0C2.52383 .19925 .797 .797-.3985 1.49438V-1.49438C.797-.797 2.52383-.19925 3.58653 0"/>
<use data-text="a" xlink:href="#font_3_28" transform="matrix(9.963098,0,0,-9.963098,249.67188,37.922845)"/>
<use data-text="g" xlink:href="#font_3_59" transform="matrix(9.963098,0,0,-9.963098,254.65341,37.922845)"/>
<use data-text="e" xlink:href="#font_3_50" transform="matrix(9.963098,0,0,-9.963098,259.63499,37.922845)"/>
<path transform="matrix(1.00005,0,0,-1.00005,1.7314835,43.49512)" stroke-width=".3985" stroke-linecap="butt" stroke-miterlimit="10" stroke-linejoin="miter" fill="none" stroke="#000000" d="M56.69362-15.1434V-39.90367"/>
<path transform="matrix(0,1.00005,1.00005,0,58.427934,83.40079)" d="M3.58653 0C2.52383 .19925 .797 .797-.3985 1.49438V-1.49438C.797-.797 2.52383-.19925 3.58653 0"/>
<use data-text="d" xlink:href="#font_3_47" transform="matrix(9.963098,0,0,-9.963098,61.94749,76.21576)"/>
<use data-text="e" xlink:href="#font_3_50" transform="matrix(9.963098,0,0,-9.963098,67.486988,76.21576)"/>
<use data-text="a" xlink:href="#font_3_28" transform="matrix(9.963098,0,0,-9.963098,71.9106,76.21576)"/>
<use data-text="t" xlink:href="#font_3_105" transform="matrix(9.963098,0,0,-9.963098,76.892139,76.21576)"/>
<use data-text="h" xlink:href="#font_3_63" transform="matrix(9.963098,0,0,-9.963098,80.76779,76.21576)"/>
<path transform="matrix(1.00005,0,0,-1.00005,1.7314835,43.49512)" stroke-width=".3985" stroke-linecap="butt" stroke-miterlimit="10" stroke-linejoin="miter" fill="none" stroke="#000000" d="M113.38724-15.1434V-39.90367"/>
<path transform="matrix(0,1.00005,1.00005,0,115.12438,83.40079)" d="M3.58653 0C2.52383 .19925 .797 .797-.3985 1.49438V-1.49438C.797-.797 2.52383-.19925 3.58653 0"/>
<use data-text="d" xlink:href="#font_3_47" transform="matrix(9.963098,0,0,-9.963098,118.64432,76.21576)"/>
<use data-text="e" xlink:href="#font_3_50" transform="matrix(9.963098,0,0,-9.963098,124.18381,76.21576)"/>
<use data-text="a" xlink:href="#font_3_28" transform="matrix(9.963098,0,0,-9.963098,128.60742,76.21576)"/>
<use data-text="t" xlink:href="#font_3_105" transform="matrix(9.963098,0,0,-9.963098,133.58896,76.21576)"/>
<use data-text="h" xlink:href="#font_3_63" transform="matrix(9.963098,0,0,-9.963098,137.46462,76.21576)"/>
<path transform="matrix(1.00005,0,0,-1.00005,1.7314835,43.49512)" stroke-width=".3985" stroke-linecap="butt" stroke-miterlimit="10" stroke-linejoin="miter" fill="none" stroke="#000000" d="M170.08086-15.1434V-39.90367"/>
<path transform="matrix(0,1.00005,1.00005,0,171.82083,83.40079)" d="M3.58653 0C2.52383 .19925 .797 .797-.3985 1.49438V-1.49438C.797-.797 2.52383-.19925 3.58653 0"/>
<use data-text="d" xlink:href="#font_3_47" transform="matrix(9.963098,0,0,-9.963098,175.34116,76.21576)"/>
<use data-text="e" xlink:href="#font_3_50" transform="matrix(9.963098,0,0,-9.963098,180.88065,76.21576)"/>
<use data-text="a" xlink:href="#font_3_28" transform="matrix(9.963098,0,0,-9.963098,185.30426,76.21576)"/>
<use data-text="t" xlink:href="#font_3_105" transform="matrix(9.963098,0,0,-9.963098,190.2858,76.21576)"/>
<use data-text="h" xlink:href="#font_3_63" transform="matrix(9.963098,0,0,-9.963098,194.16144,76.21576)"/>
<path transform="matrix(1.00005,0,0,-1.00005,1.7314835,43.49512)" stroke-width=".3985" stroke-linecap="butt" stroke-miterlimit="10" stroke-linejoin="miter" fill="none" stroke="#000000" d="M226.77448-15.1434V-39.90367"/>
<path transform="matrix(0,1.00005,1.00005,0,228.51728,83.40079)" d="M3.58653 0C2.52383 .19925 .797 .797-.3985 1.49438V-1.49438C.797-.797 2.52383-.19925 3.58653 0"/>
<use data-text="d" xlink:href="#font_3_47" transform="matrix(9.963098,0,0,-9.963098,232.03699,76.21576)"/>
<use data-text="e" xlink:href="#font_3_50" transform="matrix(9.963098,0,0,-9.963098,237.57648,76.21576)"/>
<use data-text="a" xlink:href="#font_3_28" transform="matrix(9.963098,0,0,-9.963098,242.00009,76.21576)"/>
<use data-text="t" xlink:href="#font_3_105" transform="matrix(9.963098,0,0,-9.963098,246.98165,76.21576)"/>
<use data-text="h" xlink:href="#font_3_63" transform="matrix(9.963098,0,0,-9.963098,250.8573,76.21576)"/>
<path transform="matrix(1.00005,0,0,-1.00005,1.7314835,43.49512)" stroke-width=".3985" stroke-linecap="butt" stroke-miterlimit="10" stroke-linejoin="miter" fill="none" stroke="#000000" d="M283.4681-15.1434V-39.90367"/>
<path transform="matrix(0,1.00005,1.00005,0,285.21376,83.40079)" d="M3.58653 0C2.52383 .19925 .797 .797-.3985 1.49438V-1.49438C.797-.797 2.52383-.19925 3.58653 0"/>
<use data-text="d" xlink:href="#font_3_47" transform="matrix(9.963098,0,0,-9.963098,288.73384,76.21576)"/>
<use data-text="e" xlink:href="#font_3_50" transform="matrix(9.963098,0,0,-9.963098,294.27333,76.21576)"/>
<use data-text="a" xlink:href="#font_3_28" transform="matrix(9.963098,0,0,-9.963098,298.69694,76.21576)"/>
<use data-text="t" xlink:href="#font_3_105" transform="matrix(9.963098,0,0,-9.963098,303.67848,76.21576)"/>
<use data-text="h" xlink:href="#font_3_63" transform="matrix(9.963098,0,0,-9.963098,307.55415,76.21576)"/>
<path transform="matrix(1.00005,0,0,-1.00005,1.7314835,43.49512)" stroke-width=".3985" stroke-linecap="butt" stroke-dasharray="2.98883,2.98883" stroke-miterlimit="10" stroke-linejoin="miter" fill="none" stroke="#000000" d="M211.63108 15.1434C170.08086 42.5202 56.69362 42.5202 23.5861 16.29045"/>
<path transform="matrix(-.7838092,.620991,.620991,.7838092,25.318762,27.203837)" d="M3.58653 0C2.52383 .19925 .797 .797-.3985 1.49438V-1.49438C.797-.797 2.52383-.19925 3.58653 0"/>
<path transform="matrix(1.00005,0,0,-1.00005,1.7314835,43.49512)" stroke-width=".3985" stroke-linecap="butt" stroke-dasharray="2.98883,2.98883" stroke-miterlimit="10" stroke-linejoin="miter" fill="none" stroke="#000000" d="M268.32469 15.1434C198.42766 42.5202 85.04042 56.69362 23.76364 16.04584"/>
<path transform="matrix(-.8333116,.5527776,.5527776,.8333116,25.49631,27.44848)" d="M3.58653 0C2.52383 .19925 .797 .797-.3985 1.49438V-1.49438C.797-.797 2.52383-.19925 3.58653 0"/>
</svg>
