<svg xmlns="http://www.w3.org/2000/svg" xmlns:xlink="http://www.w3.org/1999/xlink" xmlns:inkscape="http://www.inkscape.org/namespaces/inkscape" version="1.1" width="181" height="27" viewBox="0 0 181 27">
<defs>
<path id="font_1_1" d="M.48599244 .38136292C.48999024 .39537049 .48999024 .39736939 .48999024 .40437318 .48999024 .42237855 .47599793 .43138124 .46099855 .43138124 .45098878 .43138124 .43499757 .42536927 .42599488 .41036988 .42399598 .405365 .41600038 .37435914 .4119873 .35635377 .40499879 .33035279 .397995 .30334474 .3919983 .27633668L.34700013 .09628296C.34298707 .08126831 .2999878 .011245728 .23399353 .011245728 .18299866 .011245728 .17199707 .055267335 .17199707 .0922699 .17199707 .1382904 .18899536 .20030213 .22299195 .28833009 .23899842 .3293457 .24299622 .3403473 .24299622 .36035157 .24299622 .405365 .21099854 .4423828 .16099549 .4423828 .06599426 .4423828 .0289917 .29733277 .0289917 .28833009 .0289917 .27833558 .038986207 .27833558 .040985109 .27833558 .050994874 .27833558 .051986696 .28033448 .056991579 .29634095 .083999637 .3903656 .12399292 .42037965 .1579895 .42037965 .1659851 .42037965 .18299866 .42037965 .18299866 .3883667 .18299866 .36335755 .17298889 .3373413 .1659851 .31834413 .12599182 .21231079 .10798645 .1552887 .10798645 .10827637 .10798645 .019256592 .17098999-.0107421879 .22999573-.0107421879 .2689972-.0107421879 .30299378 .0062561037 .33099366 .03425598 .31799317-.017745972 .30599977-.06674194 .2659912-.11973572 .23999024-.15385437 .20199585-.18309021 .1559906-.18309021 .14199829-.18309021 .09700012-.18005371 .07998657-.14074707 .09599304-.14074707 .10899353-.14074707 .12298584-.1287384 .1329956-.11973572 .14299011-.10673523 .14299011-.08773804 .14299011-.056747438 .115997318-.052734376 .10598755-.052734376 .08299255-.052734376 .049987794-.068740848 .049987794-.11773682 .049987794-.16796875 .09399414-.20507813 .1559906-.20507813 .25898744-.20507813 .3619995-.11373901 .3899994-.00074768069L.48599244 .38136292Z"/>
<path id="font_2_1" d="M.6589966 .23046875C.6759949 .23046875 .69400027 .23046875 .69400027 .25045777 .69400027 .27046205 .6759949 .27046205 .6589966 .27046205H.117996219C.100997928 .27046205 .08299255 .27046205 .08299255 .25045777 .08299255 .23046875 .100997928 .23046875 .117996219 .23046875H.6589966Z"/>
<path id="font_3_1" d="M.5049896 .18203736H.47099305C.46798707 .16001892 .45799256 .100997928 .44499208 .09098816 .43699647 .084991458 .3600006 .084991458 .34599305 .084991458H.1619873C.2669983 .17803955 .3019867 .20603943 .3619995 .25306703 .43598939 .312088 .5049896 .374115 .5049896 .46914674 .5049896 .5900879 .39898683 .6640625 .2709961 .6640625 .14698792 .6640625 .06298828 .57710269 .06298828 .4851532 .06298828 .43414308 .10598755 .42915345 .115997318 .42915345 .13999939 .42915345 .16899109 .44615174 .16899109 .48214723 .16899109 .5001526 .1619873 .53515627 .10998535 .53515627 .14099121 .6060791 .20899964 .62805178 .2559967 .62805178 .35598756 .62805178 .4079895 .5501404 .4079895 .46914674 .4079895 .38212586 .34599305 .3130951 .31399537 .27708436L.07299805 .038986207C.06298828 .02999878 .06298828 .027999878 .06298828 0H.47499085L.5049896 .18203736Z"/>
<path id="font_4_1" d="M.44299317-.84217837 .24699402-.45318605C.24198914-.44317628 .23899842-.43717958 .23098755-.43717958 .22698975-.43717958 .22499085-.43717958 .21499634-.44517518L.10798645-.5161743C.09399414-.525177 .09399414-.5301819 .09399414-.5331726 .09399414-.5391846 .09899902-.5471802 .10798645-.5471802 .11199951-.5471802 .11399841-.5471802 .1269989-.5381775 .13798523-.5301819 .16699219-.5101776 .1789856-.502182L.397995-.9341736C.40499879-.949173 .40699769-.9511719 .42099-.9511719 .42999269-.9511719 .44099427-.9511719 .45098878-.9321747L.95399478 .003829956C.96199038 .016815186 .96199038 .018829346 .96199038 .02381897 .96199038 .03982544 .94898989 .048828126 .9379883 .048828126 .9229889 .048828126 .91799929 .03982544 .9119873 .027816773L.44299317-.84217837Z"/>
<path id="font_3_2" d="M.272995 .33428956C.35099793 .33428956 .40699769 .2803192 .40699769 .1733551 .40699769 .04940796 .33499146 .012466431 .2769928 .012466431 .23699951 .012466431 .14898682 .0234375 .10699463 .082351688 .1539917 .084350589 .16499329 .11735535 .16499329 .13835144 .16499329 .17034912 .14099121 .19335938 .10998535 .19335938 .08198547 .19335938 .053985597 .17634583 .053985597 .13534546 .053985597 .041412355 .1579895-.01953125 .2789917-.01953125 .41799928-.01953125 .5139923 .07336426 .5139923 .1733551 .5139923 .2513275 .44999696 .32929994 .33999635 .35229493 .44499208 .39024354 .48298646 .4650879 .48298646 .5260773 .48298646 .60505679 .3919983 .6640625 .2809906 .6640625 .16999817 .6640625 .084991458 .61006167 .084991458 .5300751 .084991458 .49606324 .10699463 .47706605 .13699341 .47706605 .16799927 .47706605 .18798828 .5000763 .18798828 .5280762 .18798828 .5570679 .16799927 .57806399 .13699341 .5800781 .17199707 .62405398 .24099732 .63505557 .27799989 .63505557 .32299806 .63505557 .38598634 .6130676 .38598634 .5260773 .38598634 .48406983 .37199403 .43814088 .34599305 .4072113 .31298829 .36927796 .2849884 .3672943 .23498535 .36428834 .20999146 .3623047 .20799256 .3623047 .20298767 .3612976 .20098877 .3612976 .19299317 .3592987 .19299317 .34829713 .19299317 .33428956 .20199585 .33428956 .21899414 .33428956H.272995Z"/>
</defs>
<path transform="matrix(1,0,0,-1,86.453,6.034)" stroke-width=".3985" stroke-linecap="butt" stroke-miterlimit="10" stroke-linejoin="miter" fill="none" stroke="#000000" d="M-84.58214 0H84.58214"/>
<path transform="matrix(-1,-0,0,1,1.8708649,6.034)" stroke-width=".31879" stroke-linecap="round" stroke-linejoin="round" fill="none" stroke="#000000" d="M-1.19551 1.59401C-1.09587 .99626 0 .09961 .29886 0 0-.09961-1.09587-.99626-1.19551-1.59401"/>
<path transform="matrix(1,0,0,-1,171.03514,6.034)" stroke-width=".31879" stroke-linecap="round" stroke-linejoin="round" fill="none" stroke="#000000" d="M-1.19551 1.59401C-1.09587 .99626 0 .09961 .29886 0 0-.09961-1.09587-.99626-1.19551-1.59401"/>
<use data-text="y" xlink:href="#font_1_1" transform="matrix(9.9626,0,0,-9.9626,175.013,7.2099997)"/>
<path transform="matrix(1,0,0,-1,86.453,6.034)" d="M-41.02579 0C-41.02579 .82533-41.69485 1.49442-42.5202 1.49442-43.34555 1.49442-44.01462 .82533-44.01462 0-44.01462-.82533-43.34555-1.49442-42.5202-1.49442-41.69485-1.49442-41.02579-.82533-41.02579 0ZM-42.5202 0"/>
<use data-text="&#x2212;" xlink:href="#font_2_1" transform="matrix(9.9626,0,0,-9.9626,33.60501,19.664002)"/>
<use data-text="2" xlink:href="#font_3_1" transform="matrix(6.9738,0,0,-6.9738,45.822008,15.741001)"/>
<path transform="matrix(1,0,0,-1,-137.84799,27.630002)" stroke-width=".3985" stroke-linecap="butt" stroke-miterlimit="10" stroke-linejoin="miter" fill="none" stroke="#000000" d="M180.397 10.457H190.913"/>
<use data-text="&#x221a;" xlink:href="#font_4_1" transform="matrix(6.9738,0,0,-6.9738,42.54901,18.448002)"/>
<path transform="matrix(1,0,0,-1,-137.84799,27.630002)" stroke-width=".3387" stroke-linecap="butt" stroke-miterlimit="10" stroke-linejoin="miter" fill="none" stroke="#000000" d="M186.942 9.351H190.913"/>
<use data-text="3" xlink:href="#font_3_2" transform="matrix(6.9738,0,0,-6.9738,49.09401,24.225)"/>
<path transform="matrix(1,0,0,-1,86.453,6.034)" d="M44.01462 0C44.01462 .82533 43.34555 1.49442 42.5202 1.49442 41.69485 1.49442 41.02579 .82533 41.02579 0 41.02579-.82533 41.69485-1.49442 42.5202-1.49442 43.34555-1.49442 44.01462-.82533 44.01462 0ZM42.5202 0"/>
<use data-text="2" xlink:href="#font_3_1" transform="matrix(6.9738,0,0,-6.9738,126.98801,15.741001)"/>
<path transform="matrix(1,0,0,-1,-48.933,27.630002)" stroke-width=".3985" stroke-linecap="butt" stroke-miterlimit="10" stroke-linejoin="miter" fill="none" stroke="#000000" d="M172.648 10.457H183.164"/>
<use data-text="&#x221a;" xlink:href="#font_4_1" transform="matrix(6.9738,0,0,-6.9738,123.715,18.448002)"/>
<path transform="matrix(1,0,0,-1,-48.933,27.630002)" stroke-width=".3387" stroke-linecap="butt" stroke-miterlimit="10" stroke-linejoin="miter" fill="none" stroke="#000000" d="M179.193 9.351H183.164"/>
<use data-text="3" xlink:href="#font_3_2" transform="matrix(6.9738,0,0,-6.9738,130.26,24.225)"/>
<path transform="matrix(1,0,0,-1,86.453,6.034)" stroke-width=".3985" stroke-linecap="butt" stroke-miterlimit="10" stroke-linejoin="miter" fill="none" stroke="#000000" d="M-70.867 2.83484H-50.06519"/>
<path transform="matrix(1,0,0,-1,36.387815,3.1991599)" stroke-width=".31879" stroke-linecap="round" stroke-linejoin="round" fill="none" stroke="#000000" d="M-1.19551 1.59401C-1.09587 .99626 0 .09961 .29886 0 0-.09961-1.09587-.99626-1.19551-1.59401"/>
<path transform="matrix(1,0,0,-1,86.453,6.034)" stroke-width=".3985" stroke-linecap="butt" stroke-miterlimit="10" stroke-linejoin="miter" fill="none" stroke="#000000" d="M-20.80182 2.83484H21.2601"/>
<path transform="matrix(-1,-0,0,1,65.651187,3.1991599)" stroke-width=".31879" stroke-linecap="round" stroke-linejoin="round" fill="none" stroke="#000000" d="M-1.19551 1.59401C-1.09587 .99626 0 .09961 .29886 0 0-.09961-1.09587-.99626-1.19551-1.59401"/>
<path transform="matrix(1,0,0,-1,86.453,6.034)" stroke-width=".3985" stroke-linecap="butt" stroke-miterlimit="10" stroke-linejoin="miter" fill="none" stroke="#000000" d="M49.6069 2.83484H70.40874"/>
<path transform="matrix(1,0,0,-1,156.86174,3.1991599)" stroke-width=".31879" stroke-linecap="round" stroke-linejoin="round" fill="none" stroke="#000000" d="M-1.19551 1.59401C-1.09587 .99626 0 .09961 .29886 0 0-.09961-1.09587-.99626-1.19551-1.59401"/>
</svg>
