<svg xmlns="http://www.w3.org/2000/svg" xmlns:xlink="http://www.w3.org/1999/xlink" xmlns:inkscape="http://www.inkscape.org/namespaces/inkscape" version="1.1" width="206" height="165" viewBox="0 0 206 165">
<defs>
<path id="font_1_1" d="M.45999146 .31976319C.45999146 .39982606 .45498658 .47988893 .41999818 .5539398 .37399293 .65000918 .2919922 .6660156 .25 .6660156 .18998719 .6660156 .116989139 .64001467 .07598877 .54693606 .04399109 .47789 .038986207 .39982606 .038986207 .31976319 .038986207 .24472046 .042999269 .15464783 .083999637 .07859802 .1269989-.0024719239 .19999695-.022460938 .24899292-.022460938 .30299378-.022460938 .3789978-.0014648438 .4229889 .09359741 .45498658 .16265869 .45999146 .2407074 .45999146 .31976319M.24899292-.00047302247C.20999146-.00047302247 .15098572 .024551392 .1329956 .12062073 .12199402 .18066406 .12199402 .2727356 .12199402 .3317871 .12199402 .39582826 .12199402 .46188355 .12998963 .5159149 .14898682 .63500979 .22399903 .64401248 .24899292 .64401248 .28199769 .64401248 .34799195 .6259918 .36698915 .52693179 .3769989 .47088624 .3769989 .39482118 .3769989 .3317871 .3769989 .25672914 .3769989 .18867493 .3659973 .12461853 .35099793 .029556275 .2939911-.00047302247 .24899292-.00047302247Z"/>
<path id="font_2_1" d="M.19198609 .052993776C.19198609 .08198547 .16799927 .10598755 .13899231 .10598755 .10998535 .10598755 .085998538 .08198547 .085998538 .052993776 .085998538 .023986817 .10998535 0 .13899231 0 .16799927 0 .19198609 .023986817 .19198609 .052993776Z"/>
<path id="font_1_4" d="M.44898988 .20022583C.44898988 .3193512 .36698915 .41944886 .25898744 .41944886 .21099854 .41944886 .16799927 .40345765 .13198853 .36842347V.5637665C.1519928 .5577698 .18499756 .55078127 .21699524 .55078127 .33999635 .55078127 .4099884 .6417694 .4099884 .6547699 .4099884 .6607666 .40699769 .6657715 .3999939 .6657715 .39898683 .6657715 .39698792 .6657715 .3919983 .66278079 .37199403 .6537781 .32299806 .6337738 .2559967 .6337738 .21598816 .6337738 .16999817 .6407776 .12298584 .6617737 .114990238 .66477969 .11299133 .66477969 .11099243 .66477969 .100997928 .66477969 .100997928 .6567688 .100997928 .6407776V.34439088C.100997928 .32637025 .100997928 .31835938 .114990238 .31835938 .12199402 .31835938 .12399292 .32136537 .12799073 .32736207 .13899231 .3433838 .17599488 .39746095 .25698854 .39746095 .30899049 .39746095 .33399964 .35139466 .34199525 .33337403 .35798646 .29632569 .3600006 .25727845 .3600006 .20722962 .3600006 .17222595 .3600006 .11222839 .33599855 .07035828 .31199647 .031463624 .2749939 .0055389406 .22898865 .0055389406 .1559906 .0055389406 .09899902 .058380128 .08198547 .11723328 .084991458 .1162262 .08799744 .115234378 .09899902 .115234378 .13198853 .115234378 .14898682 .14022827 .14898682 .16423035 .14898682 .18823242 .13198853 .21322632 .09899902 .21322632 .084991458 .21322632 .049987794 .20622254 .049987794 .16023255 .049987794 .07434082 .11898804-.022460938 .23098755-.022460938 .34700013-.022460938 .44898988 .073349 .44898988 .20022583Z"/>
<path id="font_1_2" d="M.2939911 .64004519C.2939911 .66400149 .2939911 .6660156 .2709961 .6660156 .20899964 .60227969 .12098694 .60227969 .08898926 .60227969V.57128909C.10899353 .57128909 .16799927 .57128909 .21998596 .5972748V.07902527C.21998596 .042999269 .21699524 .0309906 .1269989 .0309906H.09498596V0C.12998963 .0029907227 .21699524 .0029907227 .25698854 .0029907227 .29699708 .0029907227 .38398744 .0029907227 .4189911 0V.0309906H.3869934C.29699708 .0309906 .2939911 .041992189 .2939911 .07902527V.64004519Z"/>
<path id="font_1_3" d="M.1269989 .07699585 .23298645 .18003845C.3889923 .31811524 .44898988 .3721466 .44898988 .47216798 .44898988 .5860901 .35899354 .6660156 .23699951 .6660156 .12399292 .6660156 .049987794 .57411196 .049987794 .48516847 .049987794 .4291687 .099990848 .4291687 .102996829 .4291687 .11999512 .4291687 .15499878 .44117738 .15499878 .48217774 .15499878 .5081787 .13699341 .5341797 .101989749 .5341797 .09399414 .5341797 .09199524 .5341797 .08898926 .5331726 .11199951 .59806826 .1659851 .63500979 .22399903 .63500979 .31498719 .63500979 .35798646 .5541382 .35798646 .47216798 .35798646 .39215089 .30799867 .31311036 .25299073 .25108338L.06098938 .036987306C.049987794 .025985718 .049987794 .023986817 .049987794 0H.42099L.44898988 .17404175H.42399598C.4189911 .14402771 .4119873 .1000061 .4019928 .084991458 .394989 .07699585 .32899476 .07699585 .30699159 .07699585H.1269989Z"/>
<path id="font_3_1" d="M.6589966 .23046875C.6759949 .23046875 .69400027 .23046875 .69400027 .25045777 .69400027 .27046205 .6759949 .27046205 .6589966 .27046205H.117996219C.100997928 .27046205 .08299255 .27046205 .08299255 .25045777 .08299255 .23046875 .100997928 .23046875 .117996219 .23046875H.6589966Z"/>
<path id="font_4_1" d="M.5049896 .18203736H.47099305C.46798707 .16001892 .45799256 .100997928 .44499208 .09098816 .43699647 .084991458 .3600006 .084991458 .34599305 .084991458H.1619873C.2669983 .17803955 .3019867 .20603943 .3619995 .25306703 .43598939 .312088 .5049896 .374115 .5049896 .46914674 .5049896 .5900879 .39898683 .6640625 .2709961 .6640625 .14698792 .6640625 .06298828 .57710269 .06298828 .4851532 .06298828 .43414308 .10598755 .42915345 .115997318 .42915345 .13999939 .42915345 .16899109 .44615174 .16899109 .48214723 .16899109 .5001526 .1619873 .53515627 .10998535 .53515627 .14099121 .6060791 .20899964 .62805178 .2559967 .62805178 .35598756 .62805178 .4079895 .5501404 .4079895 .46914674 .4079895 .38212586 .34599305 .3130951 .31399537 .27708436L.07299805 .038986207C.06298828 .02999878 .06298828 .027999878 .06298828 0H.47499085L.5049896 .18203736Z"/>
<path id="font_5_1" d="M.44299317-.84217837 .24699402-.45318605C.24198914-.44317628 .23899842-.43717958 .23098755-.43717958 .22698975-.43717958 .22499085-.43717958 .21499634-.44517518L.10798645-.5161743C.09399414-.525177 .09399414-.5301819 .09399414-.5331726 .09399414-.5391846 .09899902-.5471802 .10798645-.5471802 .11199951-.5471802 .11399841-.5471802 .1269989-.5381775 .13798523-.5301819 .16699219-.5101776 .1789856-.502182L.397995-.9341736C.40499879-.949173 .40699769-.9511719 .42099-.9511719 .42999269-.9511719 .44099427-.9511719 .45098878-.9321747L.95399478 .003829956C.96199038 .016815186 .96199038 .018829346 .96199038 .02381897 .96199038 .03982544 .94898989 .048828126 .9379883 .048828126 .9229889 .048828126 .91799929 .03982544 .9119873 .027816773L.44299317-.84217837Z"/>
<path id="font_4_2" d="M.272995 .33428956C.35099793 .33428956 .40699769 .2803192 .40699769 .1733551 .40699769 .04940796 .33499146 .012466431 .2769928 .012466431 .23699951 .012466431 .14898682 .0234375 .10699463 .082351688 .1539917 .084350589 .16499329 .11735535 .16499329 .13835144 .16499329 .17034912 .14099121 .19335938 .10998535 .19335938 .08198547 .19335938 .053985597 .17634583 .053985597 .13534546 .053985597 .041412355 .1579895-.01953125 .2789917-.01953125 .41799928-.01953125 .5139923 .07336426 .5139923 .1733551 .5139923 .2513275 .44999696 .32929994 .33999635 .35229493 .44499208 .39024354 .48298646 .4650879 .48298646 .5260773 .48298646 .60505679 .3919983 .6640625 .2809906 .6640625 .16999817 .6640625 .084991458 .61006167 .084991458 .5300751 .084991458 .49606324 .10699463 .47706605 .13699341 .47706605 .16799927 .47706605 .18798828 .5000763 .18798828 .5280762 .18798828 .5570679 .16799927 .57806399 .13699341 .5800781 .17199707 .62405398 .24099732 .63505557 .27799989 .63505557 .32299806 .63505557 .38598634 .6130676 .38598634 .5260773 .38598634 .48406983 .37199403 .43814088 .34599305 .4072113 .31298829 .36927796 .2849884 .3672943 .23498535 .36428834 .20999146 .3623047 .20799256 .3623047 .20298767 .3612976 .20098877 .3612976 .19299317 .3592987 .19299317 .34829713 .19299317 .33428956 .20199585 .33428956 .21899414 .33428956H.272995Z"/>
<clipPath id="clip_6">
<path transform="matrix(1,0,0,-1.00002,4.1030046,190.08849)" d="M6.54378 26.89838H200.81777V188.28865H6.54378Z"/>
</clipPath>
<path id="font_2_2" d="M.20599365 .3996582H.2999878C.31999208 .3996582 .32998658 .3996582 .32998658 .41966249 .32998658 .43066407 .31999208 .43066407 .3019867 .43066407H.21398926C.25 .5724945 .25498963 .59246829 .25498963 .59846499 .25498963 .61546328 .24299622 .62545779 .22599793 .62545779 .22299195 .62545779 .19499207 .62446597 .18598938 .58947756L.14698792 .43066407H.052993776C.032989503 .43066407 .022994996 .43066407 .022994996 .4116516 .022994996 .3996582 .0309906 .3996582 .050994874 .3996582H.13899231C.066986087 .11608887 .06298828 .099121097 .06298828 .08114624 .06298828 .02722168 .100997928-.0107421879 .15499878-.0107421879 .25698854-.0107421879 .31399537 .13505554 .31399537 .14305115 .31399537 .1530304 .30599977 .1530304 .3019867 .1530304 .29299928 .1530304 .2919922 .15003968 .2869873 .13905335 .24398804 .035217287 .19099427 .011245728 .15699768 .011245728 .13598633 .011245728 .12599182 .024230957 .12599182 .057174684 .12599182 .08114624 .12799073 .088134769 .13198853 .10510254L.20599365 .3996582Z"/>
<path id="font_2_3" d="M.48599244 .38136292C.48999024 .39537049 .48999024 .39736939 .48999024 .40437318 .48999024 .42237855 .47599793 .43138124 .46099855 .43138124 .45098878 .43138124 .43499757 .42536927 .42599488 .41036988 .42399598 .405365 .41600038 .37435914 .4119873 .35635377 .40499879 .33035279 .397995 .30334474 .3919983 .27633668L.34700013 .09628296C.34298707 .08126831 .2999878 .011245728 .23399353 .011245728 .18299866 .011245728 .17199707 .055267335 .17199707 .0922699 .17199707 .1382904 .18899536 .20030213 .22299195 .28833009 .23899842 .3293457 .24299622 .3403473 .24299622 .36035157 .24299622 .405365 .21099854 .4423828 .16099549 .4423828 .06599426 .4423828 .0289917 .29733277 .0289917 .28833009 .0289917 .27833558 .038986207 .27833558 .040985109 .27833558 .050994874 .27833558 .051986696 .28033448 .056991579 .29634095 .083999637 .3903656 .12399292 .42037965 .1579895 .42037965 .1659851 .42037965 .18299866 .42037965 .18299866 .3883667 .18299866 .36335755 .17298889 .3373413 .1659851 .31834413 .12599182 .21231079 .10798645 .1552887 .10798645 .10827637 .10798645 .019256592 .17098999-.0107421879 .22999573-.0107421879 .2689972-.0107421879 .30299378 .0062561037 .33099366 .03425598 .31799317-.017745972 .30599977-.06674194 .2659912-.11973572 .23999024-.15385437 .20199585-.18309021 .1559906-.18309021 .14199829-.18309021 .09700012-.18005371 .07998657-.14074707 .09599304-.14074707 .10899353-.14074707 .12298584-.1287384 .1329956-.11973572 .14299011-.10673523 .14299011-.08773804 .14299011-.056747438 .115997318-.052734376 .10598755-.052734376 .08299255-.052734376 .049987794-.068740848 .049987794-.11773682 .049987794-.16796875 .09399414-.20507813 .1559906-.20507813 .25898744-.20507813 .3619995-.11373901 .3899994-.00074768069L.48599244 .38136292Z"/>
</defs>
<path transform="matrix(1,0,0,-1.00002,4.1030046,190.08849)" stroke-width=".19925" stroke-linecap="butt" stroke-miterlimit="10" stroke-linejoin="miter" fill="none" stroke="#929292" d="M63.20702 105.46753V109.71948M103.68077 105.46753V109.71948M144.15451 105.46753V109.71948M184.62827 105.46753V109.71948"/>
<path transform="matrix(1,0,0,-1.00002,4.1030046,190.08849)" stroke-width=".19925" stroke-linecap="butt" stroke-miterlimit="10" stroke-linejoin="miter" fill="none" stroke="#929292" d="M20.6074 76.66037H24.85915M20.6074 138.52666H24.85915"/>
<path transform="matrix(1,0,0,-1.00002,4.1030046,190.08849)" stroke-width=".3985" stroke-linecap="butt" stroke-miterlimit="10" stroke-linejoin="miter" fill="none" stroke="#000000" d="M6.54378 107.59352H198.82524"/>
<path transform="matrix(1,0,0,-1.00002,202.92826,82.49281)" d="M1.99252 0-1.19551 1.59401 0 0-1.19551-1.59401"/>
<path transform="matrix(1,0,0,-1.00002,4.1030046,190.08849)" stroke-width=".3985" stroke-linecap="butt" stroke-miterlimit="10" stroke-linejoin="miter" fill="none" stroke="#000000" d="M22.73328 26.89838V186.29613"/>
<path transform="matrix(0,-1.00002,-1,-0,26.836285,3.78862)" d="M1.99252 0-1.19551 1.59401 0 0-1.19551-1.59401"/>
<use data-text="0" xlink:href="#font_1_1" transform="matrix(9.9626,0,0,-9.962799,60.945005,94.55957)"/>
<use data-text="." xlink:href="#font_2_1" transform="matrix(9.9626,0,0,-9.962799,65.92601,94.55957)"/>
<use data-text="5" xlink:href="#font_1_4" transform="matrix(9.9626,0,0,-9.962799,68.694,94.55957)"/>
<use data-text="1" xlink:href="#font_1_2" transform="matrix(9.9626,0,0,-9.962799,105.29301,94.55957)"/>
<use data-text="1" xlink:href="#font_1_2" transform="matrix(9.9626,0,0,-9.962799,141.892,94.55957)"/>
<use data-text="." xlink:href="#font_2_1" transform="matrix(9.9626,0,0,-9.962799,146.87302,94.55957)"/>
<use data-text="5" xlink:href="#font_1_4" transform="matrix(9.9626,0,0,-9.962799,149.641,94.55957)"/>
<use data-text="2" xlink:href="#font_1_3" transform="matrix(9.9626,0,0,-9.962799,186.241,94.55957)"/>
<use data-text="&#x2212;" xlink:href="#font_3_1" transform="matrix(9.9626,0,0,-9.962799,.5340042,114.92498)"/>
<use data-text="2" xlink:href="#font_4_1" transform="matrix(6.9738,0,0,-6.97394,12.751007,111.0019)"/>
<path transform="matrix(1,0,0,-1.00002,-106.002,-58.967508)" stroke-width=".3985" stroke-linecap="butt" stroke-miterlimit="10" stroke-linejoin="miter" fill="none" stroke="#000000" d="M115.48-171.398H125.996"/>
<use data-text="&#x221a;" xlink:href="#font_5_1" transform="matrix(6.9738,0,0,-6.97394,9.478004,113.70896)"/>
<path transform="matrix(1,0,0,-1.00002,-106.002,-58.967508)" stroke-width=".3387" stroke-linecap="butt" stroke-miterlimit="10" stroke-linejoin="miter" fill="none" stroke="#000000" d="M122.025-172.504H125.996"/>
<use data-text="3" xlink:href="#font_4_2" transform="matrix(6.9738,0,0,-6.97394,16.023003,119.48606)"/>
<use data-text="2" xlink:href="#font_4_1" transform="matrix(6.9738,0,0,-6.97394,12.750999,49.13466)"/>
<path transform="matrix(1,0,0,-1.00002,-98.253,-120.83475)" stroke-width=".3985" stroke-linecap="butt" stroke-miterlimit="10" stroke-linejoin="miter" fill="none" stroke="#000000" d="M107.732-171.398H118.248"/>
<use data-text="&#x221a;" xlink:href="#font_5_1" transform="matrix(6.9738,0,0,-6.97394,9.479004,51.84172)"/>
<path transform="matrix(1,0,0,-1.00002,-98.253,-120.83475)" stroke-width=".3387" stroke-linecap="butt" stroke-miterlimit="10" stroke-linejoin="miter" fill="none" stroke="#000000" d="M114.277-172.504H118.248"/>
<use data-text="3" xlink:href="#font_4_2" transform="matrix(6.9738,0,0,-6.97394,16.024003,57.61882)"/>
<g clip-path="url(#clip_6)">
<path transform="matrix(1,0,0,-1.00002,4.1030046,190.08849)" stroke-width=".79701" stroke-linecap="butt" stroke-miterlimit="10" stroke-linejoin="miter" fill="none" stroke="#ff0000" d="M0 138.66115 52.30342 139.42639 60.18689 140.19165 64.76447 140.9569 67.97322 141.72216 70.44374 142.48741 72.43344 143.25267 74.0977 144.01793 75.524 144.78318 76.76898 145.54843 77.86824 146.31369 78.85417 147.07894 79.74298 147.84421 80.55408 148.60945 81.29556 149.37471 81.97876 150.13996 82.61014 150.90522 83.19945 151.67049 83.74745 152.43573 84.25903 153.20099 84.74474 153.96623 85.20047 154.73149 85.6295 155.49675 86.03665 156.26201 86.42033 157.02727 86.78703 157.79251 87.13593 158.55777 87.46942 159.32302 87.78836 160.08829 88.08948 160.85355 88.37926 161.61879 88.65692 162.38405 88.92567 163.14929 89.18147 163.91455 89.42834 164.67981 89.66634 165.44507 89.8938 166.21033 90.11479 166.97557 90.32849 167.74083 90.5341 168.50609 90.7316 169.27135 90.92508 170.0366 91.11206 170.80185 91.2934 171.56711 91.46579 172.33235 91.6358 173.09763 91.80092 173.86287 91.9596 174.62813 92.11499 175.39339 92.26532 176.15863 92.41168 176.9239 92.55447 177.68915 92.69304 178.4544 92.82896 179.21965 92.95961 179.98491 93.08961 180.75017 93.215 181.51543 93.33641 182.28069 93.45573 183.04593 93.57158 183.81119 93.68457 184.57645 93.7949 185.3417 93.90337 186.10697 94.0091 186.87221 94.11197 187.63747 94.21317 188.40271 94.31158 189.16797 94.40784 189.93325 94.50296 190.69849 94.59523 191.46375 94.6855 192.22899 94.77429 192.99425 94.86156 193.7595 94.9467 194.52477 95.0296 195.29003 95.11153 196.05527 95.19221 196.82053 95.26968 197.58577 95.34781 198.35105 95.42276 199.1163 95.49722 199.88155 95.5708 200.6468 95.64172 201.41205 95.71199 202.17733 95.78072 202.94257 95.84846 203.70783 95.9155 204.47309 95.98058 205.23833 96.04477 206.00359 96.10799 206.76885 96.16966 207.5341 96.23102 208.29936 96.29092 209.0646 96.34976 209.82987 96.40846 210.59513 96.46512 211.36038 96.52098 212.12563 96.57675 212.89089 96.63106 213.65615 96.68456 214.42139 96.73734 215.18666"/>
<path transform="matrix(1,0,0,-1.00002,4.1030046,190.08849)" stroke-width=".79701" stroke-linecap="butt" stroke-miterlimit="10" stroke-linejoin="miter" fill="none" stroke="#ff8000" d="M198.85399 76.55278 157.03246 77.1736 148.98384 77.7944 144.18447 78.41522 140.73044 79.03604 138.01708 79.65686 135.77645 80.27766 133.85558 80.89848 132.16944 81.51929 130.6792 82.1401 129.31928 82.76091 128.08159 83.38173 126.93698 84.00255 125.8693 84.62335 124.86635 85.24417 123.92897 85.86499 123.03854 86.48581 122.1894 87.10661 121.38156 87.72743 120.6085 88.34825 119.86378 88.96907 119.14659 89.58987 118.45612 90.2107 117.78749 90.83151 117.13666 91.45232 116.5069 92.07314 115.89252 92.69395 115.29253 93.31477 114.70824 93.93558 114.13466 94.5564 113.57378 95.1772 113.02316 95.79802 112.48154 96.41882 111.94931 97.03964 111.42477 97.66046 110.90808 98.28127 110.39699 98.90208 109.8943 99.5229 109.39662 100.14372 108.90326 100.76453 108.41466 101.38535 107.93018 102.00616 107.44928 102.62698 106.97162 103.24779 106.49669 103.8686 106.02371 104.48943 105.55292 105.11024 105.08325 105.73105 104.61513 106.35187 104.14755 106.97269 103.68077 107.5935 103.21342 108.21431 102.74586 108.83511 102.27748 109.45593 101.80814 110.07675 101.33736 110.69756 100.86389 111.31837 100.38857 111.9392 99.91072 112.56001 99.42958 113.18082 98.94519 113.80164 98.45715 114.42245 97.96411 115.04326 97.46564 115.66408 96.96173 116.2849 96.45201 116.90572 95.93532 117.52652 95.41191 118.14734 94.87903 118.76816 94.33789 119.38898 93.78737 120.00978 93.22624 120.6306 92.65079 121.25142 92.06691 121.87222 91.46742 122.49304 90.85384 123.11385 90.22408 123.73466 89.57245 124.35547 88.90462 124.97629 88.21252 125.5971 87.49614 126.21793 86.75142 126.83873 85.97836 127.45955 85.17213 128.08037 84.32219 128.70117 83.43176 129.32199 82.4944 129.94281 81.49146 130.56363 80.42377 131.18444 79.28159 131.80525 78.04146 132.42607 76.68155 133.04689 75.19049 133.6677 73.50436 134.28852 71.58508 134.90933 69.34447 135.53014 66.63112 136.15096 63.1795 136.77176 58.3761 137.39258 50.33315 138.01338 8.50917 138.6342"/>
<path transform="matrix(1,0,0,-1.00002,4.1030046,190.08849)" stroke-width=".79701" stroke-linecap="butt" stroke-miterlimit="10" stroke-linejoin="miter" fill="none" stroke="#00ff00" d="M29.67592 0 29.72787 .76524 29.78049 1.5305 29.83691 2.29575 29.89114 3.061 29.94707 3.82625 30.00504 4.59152 30.06284 5.35678 30.1215 6.12202 30.18126 6.88728 30.24246 7.65253 30.30583 8.41779 30.36792 9.18304 30.43066 9.9483 30.4964 10.71356 30.56284 11.4788 30.63068 12.24406 30.69923 13.00932 30.77046 13.77458 30.84341 14.53984 30.91609 15.30508 30.98993 16.07034 31.06593 16.83559 31.14291 17.60086 31.22215 18.3661 31.30148 19.13136 31.3838 19.89662 31.46638 20.66187 31.55219 21.42714 31.6384 22.19238 31.72694 22.95764 31.81866 23.72289 31.91061 24.48814 32.0055 25.2534 32.1018 26.01866 32.20058 26.78392 32.3012 27.54916 32.40497 28.31442 32.51012 29.07968 32.61794 29.84494 32.7282 30.6102 32.84209 31.37544 32.95792 32.1407 33.07701 32.90594 33.19841 33.6712 33.32413 34.43648 33.45284 35.20172 33.58363 35.96698 33.71834 36.73222 33.85773 37.49748 33.99973 38.26274 34.1468 39.028 34.29712 39.79326 34.45287 40.5585 34.61151 41.32376 34.77583 42.089 34.94502 42.85428 35.12067 43.61954 35.3012 44.38478 35.48656 45.15004 35.68002 45.91528 35.87915 46.68056 36.08394 47.4458 36.29765 48.21106 36.51784 48.97632 36.74611 49.74156 36.9849 50.50682 37.23178 51.27208 37.48758 52.03734 37.75552 52.8026 38.03235 53.56784 38.32378 54.3331 38.6249 55.09836 38.94463 55.86362 39.27733 56.62886 39.6254 57.39412 39.9921 58.15938 40.3766 58.92462 40.78375 59.6899 41.2136 60.45514 41.6669 61.2204 42.15097 61.98564 42.66498 62.7509 43.213 63.51617 43.80148 64.28142 44.43369 65.04668 45.11688 65.81192 45.85916 66.57718 46.66783 67.34244 47.55908 68.1077 48.5434 68.87296 49.64508 69.6382 50.88763 70.40346 52.31392 71.1687 53.979 71.93398 55.9679 72.69923 58.43436 73.46448 61.64555 74.22974 66.21988 74.99498 74.11066 75.76024 126.00043 76.5255"/>
<path transform="matrix(1,0,0,-1.00002,4.1030046,190.08849)" stroke-width=".79701" stroke-linecap="butt" stroke-miterlimit="10" stroke-linejoin="miter" fill="none" stroke="#0000ff" d="M6.54378 138.63423H200.81777"/>
<path transform="matrix(1,0,0,-1.00002,4.1030046,190.08849)" stroke-width=".79701" stroke-linecap="butt" stroke-miterlimit="10" stroke-linejoin="miter" fill="none" stroke="#0000ff" d="M6.54378 76.55278H200.81777"/>
<path transform="matrix(1,0,0,-1.00002,4.1030046,190.08849)" stroke-width=".79701" stroke-linecap="butt" stroke-miterlimit="10" stroke-linejoin="miter" fill="none" stroke="#000000" d="M21.11432 32.27805V67.8835"/>
<path transform="matrix(0,-1.00002,-1,-0,25.217326,122.20363)" stroke-width=".6376" stroke-linecap="round" stroke-linejoin="round" fill="none" stroke="#000000" d="M-1.55415 2.0722C-1.42464 1.29512 0 .1295 .38852 0 0-.1295-1.42464-1.29512-1.55415-2.0722"/>
<path transform="matrix(1,0,0,-1.00002,4.1030046,190.08849)" stroke-width=".79701" stroke-linecap="butt" stroke-miterlimit="10" stroke-linejoin="miter" fill="none" stroke="#000000" d="M21.11432 129.11222V86.78218"/>
<path transform="matrix(0,1.00002,1,0,25.217326,103.304569)" stroke-width=".6376" stroke-linecap="round" stroke-linejoin="round" fill="none" stroke="#000000" d="M-1.55415 2.0722C-1.42464 1.29512 0 .1295 .38852 0 0-.1295-1.42464-1.29512-1.55415-2.0722"/>
<path transform="matrix(1,0,0,-1.00002,4.1030046,190.08849)" stroke-width=".79701" stroke-linecap="butt" stroke-miterlimit="10" stroke-linejoin="miter" fill="none" stroke="#000000" d="M21.11432 146.59616V182.20162"/>
<path transform="matrix(0,-1.00002,-1,-0,25.217326,7.8832247)" stroke-width=".6376" stroke-linecap="round" stroke-linejoin="round" fill="none" stroke="#000000" d="M-1.55415 2.0722C-1.42464 1.29512 0 .1295 .38852 0 0-.1295-1.42464-1.29512-1.55415-2.0722"/>
</g>
<path transform="matrix(1,0,0,-1.00002,4.1030046,190.08849)" d="M24.72583 76.55278C24.72583 77.65324 23.83374 78.54533 22.73328 78.54533 21.6328 78.54533 20.74072 77.65324 20.74072 76.55278 20.74072 75.4523 21.6328 74.56023 22.73328 74.56023 23.83374 74.56023 24.72583 75.4523 24.72583 76.55278ZM22.73328 76.55278"/>
<path transform="matrix(1,0,0,-1.00002,4.1030046,190.08849)" stroke-width=".3985" stroke-linecap="butt" stroke-miterlimit="10" stroke-linejoin="miter" fill="none" stroke="#000000" d="M24.72583 76.55278C24.72583 77.65324 23.83374 78.54533 22.73328 78.54533 21.6328 78.54533 20.74072 77.65324 20.74072 76.55278 20.74072 75.4523 21.6328 74.56023 22.73328 74.56023 23.83374 74.56023 24.72583 75.4523 24.72583 76.55278ZM22.73328 76.55278"/>
<path transform="matrix(1,0,0,-1.00002,4.1030046,190.08849)" d="M24.72583 138.63423C24.72583 139.73471 23.83374 140.62679 22.73328 140.62679 21.6328 140.62679 20.74072 139.73471 20.74072 138.63423 20.74072 137.53377 21.6328 136.64168 22.73328 136.64168 23.83374 136.64168 24.72583 137.53377 24.72583 138.63423ZM22.73328 138.63423"/>
<path transform="matrix(1,0,0,-1.00002,4.1030046,190.08849)" stroke-width=".3985" stroke-linecap="butt" stroke-miterlimit="10" stroke-linejoin="miter" fill="none" stroke="#000000" d="M24.72583 138.63423C24.72583 139.73471 23.83374 140.62679 22.73328 140.62679 21.6328 140.62679 20.74072 139.73471 20.74072 138.63423 20.74072 137.53377 21.6328 136.64168 22.73328 136.64168 23.83374 136.64168 24.72583 137.53377 24.72583 138.63423ZM22.73328 138.63423"/>
<path transform="matrix(1,0,0,-1.00002,4.1030046,190.08849)" stroke-width=".3985" stroke-linecap="butt" stroke-miterlimit="10" stroke-linejoin="miter" fill="none" stroke="#000000" d=""/>
<use data-text="t" xlink:href="#font_2_2" transform="matrix(9.9626,0,0,-9.962799,197.836,78.95626)"/>
<use data-text="y" xlink:href="#font_2_3" transform="matrix(9.9626,0,0,-9.962799,30.360009,9.6058659)"/>
</svg>
