<svg xmlns="http://www.w3.org/2000/svg" xmlns:xlink="http://www.w3.org/1999/xlink" xmlns:inkscape="http://www.inkscape.org/namespaces/inkscape" version="1.1" width="102" height="32" viewBox="0 0 102 32">
<defs>
<path id="font_1_1" d="M.30299378 .3157959H.47299195C.61499026 .3157959 .7539978 .41973878 .7539978 .53167727 .7539978 .6086273 .6879883 .6826172 .5569916 .6826172H.23298645C.21398926 .6826172 .20298767 .6826172 .20298767 .66360476 .20298767 .6516113 .21199036 .6516113 .23199463 .6516113 .24499512 .6516113 .2630005 .65060427 .2749939 .6496124 .29100038 .6476135 .29699708 .64460757 .29699708 .6336212 .29699708 .6296234 .29599 .62661746 .29299928 .614624L.15899658 .07795715C.14898682 .038986207 .14698792 .0309906 .067993167 .0309906 .050994874 .0309906 .039993287 .0309906 .039993287 .011993408 .039993287 0 .051986696 0 .054992677 0 .08299255 0 .1539917 .0029907227 .18199158 .0029907227 .20298767 .0029907227 .22499085 .0019989014 .24598694 .0019989014 .2679901 .0019989014 .2899933 0 .31098939 0 .31799317 0 .33099366 0 .33099366 .019989014 .33099366 .0309906 .32199098 .0309906 .30299378 .0309906 .2659912 .0309906 .23799134 .0309906 .23799134 .048980714 .23799134 .054977418 .23999024 .05996704 .24099732 .065963748L.30299378 .3157959M.375 .6136322C.38398744 .64860537 .38598634 .6516113 .42900086 .6516113H.5249939C.60798647 .6516113 .6609955 .62461856 .6609955 .55566409 .6609955 .5166931 .6409912 .43074037 .60198977 .39476014 .5519867 .34977723 .49198915 .34179688 .44799806 .34179688H.30699159L.375 .6136322Z"/>
<path id="font_2_35" d="M.6769867 .2163086C.6769867 .3363495 .56599429 .4423828 .4149933 .4423828 .36099244 .4423828 .2979889 .42837525 .24398804 .3863678V.69433596L.07598877 .68333438V.639328C.1499939 .639328 .15899658 .6323242 .15899658 .5833435V.00024414063H.20098877C.20899964 .013244629 .21699524 .027252198 .22399903 .040252687 .22698975 .04626465 .23098755 .053253175 .23498535 .059265138 .27799989 .013244629 .33898927-.0107421879 .4019928-.0107421879 .55400088-.0107421879 .6769867 .091278079 .6769867 .2163086M.57699587 .2163086C.57699587 .15829468 .56399539 .107284549 .5249939 .07026672 .49299623 .040252687 .44400025 .022247315 .3959961 .022247315 .32798768 .022247315 .27598573 .060256959 .24798584 .106277469V.3343506C.28199769 .38336183 .34799195 .40937806 .4079895 .40937806 .526001 .40937806 .57699587 .32234193 .57699587 .2163086Z"/>
<path id="font_2_66" d="M.32598878 0V.04399109C.25898744 .04399109 .25099183 .04399109 .25099183 .08403015V.4423828L.08699036 .43066407V.3866577C.1579895 .3866577 .1659851 .3796692 .1659851 .33070375V.08395386C.1659851 .052978517 .1659851 .04399109 .100997928 .04399109H.08299255V0C.12399292 .0029907227 .1659851 .0039978029 .20698548 .0039978029 .24499512 .0039978029 .2889862 .0029907227 .32598878 0M.2619934 .6000519C.2619934 .63404849 .23498535 .6610565 .20098877 .6610565 .16799927 .6610565 .13999939 .63404849 .13999939 .6000519 .13999939 .5660553 .16699219 .5390625 .20098877 .5390625 .23399353 .5390625 .2619934 .5660553 .2619934 .6000519Z"/>
<path id="font_2_96" d="M.47898866 .37338258C.47898866 .41137696 .44299317 .4423828 .3899994 .4423828 .33999635 .44171144 .27598573 .41571046 .23699951 .33171083H.23599243V.4423828L.07598877 .43066407V.3866577C.1499939 .3866577 .15899658 .3796692 .15899658 .33070375V.08395386C.15899658 .052978517 .15899658 .04399109 .09399414 .04399109H.07598877V0C.117996219 .0029907227 .16299439 .0039978029 .20498657 .0039978029L.34799195 0V.04399109H.32099916C.24398804 .04399109 .24398804 .053985597 .24398804 .084991458V.22399903C.24398804 .31698609 .29699708 .40699769 .3919983 .40899659 .3919983 .40899659 .37799073 .394989 .37799073 .37298585 .37799073 .33699037 .4059906 .32199098 .42799378 .32199098 .45298768 .32199098 .47898866 .33898927 .47898866 .37298585V.37338258Z"/>
<path id="font_2_105" d="M.44400025 .12608338V.18099976H.4019928V.1290741C.4019928 .05419922 .35798646 .025253296 .32299806 .025253296 .24598694 .025253296 .24598694 .1051178 .24598694 .12608338V.3866577H.4229889V.43066407H.24598694V.6142578H.20399475C.20298767 .52046206 .15299988 .4226532 .050994874 .41966249V.3866577H.15699768V.12608338C.15699768 .012252808 .25099183-.0107421879 .31298829-.0107421879 .3880005-.011001587 .44400025 .04399109 .44400025 .12599182V.12608338Z"/>
<path id="font_2_63" d="M.68299868 0V.04399109H.6649933C.59999087 .04399109 .59999087 .052978517 .59999087 .08395386V.3018036C.59999087 .41236878 .5249939 .4423828 .43199159 .4423828 .31698609 .4423828 .2649994 .37419129 .25 .35105897V.69433596L.08198547 .6826172V.63861086C.1559906 .63861086 .16499329 .6316376 .16499329 .5828247V.08395386C.16499329 .052978517 .16499329 .04399109 .099990848 .04399109H.08198547V0C.125 .0029907227 .16699219 .0039978029 .20999146 .0039978029 .2519989 .0039978029 .29499818 .0029907227 .33699037 0V.04399109H.31900025C.2539978 .04399109 .2539978 .052978517 .2539978 .08395386V.2578125C.2539978 .37117005 .35798646 .40937806 .41999818 .40937806 .49398805 .40937806 .5109863 .36715699 .5109863 .30281068V.08395386C.5109863 .052978517 .5109863 .04399109 .44599916 .04399109H.42799378V0C.47099305 .0029907227 .5130005 .0039978029 .55599978 .0039978029 .59799197 .0039978029 .6409912 .0029907227 .68299868 0Z"/>
<path id="font_2_75" d="M1.0309906 0V.04399109H1.0130005C.94799807 .04399109 .94799807 .052978517 .94799807 .08395386V.3017578C.94799807 .42536927 .85398867 .4423828 .7789917 .4423828 .68099978 .4423828 .6239929 .39328004 .59599307 .34902955 .57099917 .44137574 .46899415 .4423828 .43199159 .4423828 .32899476 .4423828 .2709961 .3872528 .24598694 .34399415V.4423828L.08198547 .43066407V.3866577C.1559906 .3866577 .16499329 .3796692 .16499329 .330719V.08395386C.16499329 .052978517 .16499329 .04399109 .099990848 .04399109H.08198547V0C.125 .0029907227 .16699219 .0039978029 .20999146 .0039978029 .2519989 .0039978029 .29499818 .0029907227 .33699037 0V.04399109H.31900025C.2539978 .04399109 .2539978 .052978517 .2539978 .08395386V.25775147C.2539978 .36914063 .35598756 .40937806 .42099 .40937806 .49398805 .40937806 .5119934 .36813355 .5119934 .30274964V.08395386C.5119934 .052978517 .5119934 .04399109 .44699098 .04399109H.42900086V0C.47200013 .0029907227 .5139923 .0039978029 .5569916 .0039978029 .598999 .0039978029 .6419983 .0029907227 .6839905 0V.04399109H.66600039C.6009979 .04399109 .6009979 .052978517 .6009979 .08395386V.25775147C.6009979 .36914063 .7029877 .40937806 .7679901 .40937806 .84098818 .40937806 .85899356 .36813355 .85899356 .30274964V.08395386C.85899356 .052978517 .85899356 .04399109 .7939911 .04399109H.776001V0C.81900027 .0029907227 .86099246 .0039978029 .9039917 .0039978029 .94599917 .0039978029 .9889984 .0029907227 1.0309906 0Z"/>
<path id="font_2_59" d="M.6349945 .39611817C.6349945 .42211915 .6139984 .453125 .56599429 .453125 .5419922 .453125 .4889984 .44812013 .43598939 .40711976 .41299439 .42137147 .36799623 .4423828 .30599977 .4423828 .18798828 .4423828 .10598755 .3723755 .10598755 .29537965 .10598755 .2443695 .14299011 .2073822 .1579895 .19537354 .13398743 .16638184 .12799073 .1363678 .12799073 .11437988 .12799073 .06137085 .1619873 .028381348 .17098999 .021377564 .12098694 .007980347 .06298828-.024032593 .06298828-.077041629 .06298828-.15605164 .19499207-.20605469 .33999635-.20605469 .47399903-.20605469 .61698916-.1620636 .61698916-.075042728 .61698916-.030029297 .59098818 .017974854 .5419922 .041992189 .47499085 .074035648 .41099549 .074035648 .3039856 .074035648 .2789917 .07398987 .23498535 .07398987 .22999573 .07498169 .18199158 .08303833 .17098999 .12226868 .17098999 .14138794 .17098999 .16142273 .18099976 .1774292 .18399048 .1774292 .18399048 .1774292 .18798828 .17643738 .19099427 .1754303 .23098755 .1544342 .269989 .1484375 .30499269 .1484375 .4229889 .1484375 .5049896 .21842957 .5049896 .29542542 .5049896 .34321595 .47200013 .37817384 .45999146 .38916017 .5079956 .41812135 .5529938 .41911317 .56900027 .42012025 .56599429 .41612245 .5609894 .41012574 .5609894 .39614869 .5609894 .37617494 .57398989 .3591919 .59799197 .3591919 .621994 .3591919 .6349945 .37617494 .6349945 .39614869V.39611817M.4169922 .2952881C.4169922 .24035645 .3929901 .181427 .30599977 .181427 .21798706 .181427 .19400025 .23934937 .19400025 .2952881 .19400025 .35031129 .21798706 .40937806 .30499269 .40937806 .3929901 .40937806 .4169922 .35131837 .4169922 .29525758V.2952881M.5479889-.07701111C.5479889-.1260376 .45899964-.17306519 .33999635-.17306519 .22499085-.17306519 .13198853-.12902832 .13198853-.07600403 .13198853-.04498291 .16699219-.001953125 .24198914-.001953125H.30699159C.40699769-.001953125 .5479889-.001953125 .5479889-.07701111Z"/>
<path id="font_2_28" d="M.6349945 .090148929V.14515686H.59298709V.09214783C.59298709 .08213806 .59298709 .038131715 .5529938 .038131715 .5130005 .038131715 .5130005 .08213806 .5130005 .09214783V.2972107C.5130005 .39323426 .4119873 .4482422 .28799439 .4482422 .22698975 .4482422 .11099243 .4452362 .11099243 .36021424 .11099243 .32321168 .13899231 .30619813 .1639862 .30619813 .19099427 .30619813 .21699524 .32521058 .21699524 .3592224 .21699524 .3832245 .20298767 .39822389 .19400025 .40423585 .22698975 .41523744 .2749939 .41523744 .28599549 .41523744 .37098695 .41523744 .42399598 .3682251 .42399598 .2962036V.27020265C.32699586 .26519776 .272995 .26219178 .19599915 .23518372 .12998963 .21217346 .07199097 .17016602 .07199097 .105148319 .07199097 .011245728 .18798828-.0107421879 .2679901-.0107421879 .34498597-.0107421879 .40499879 .020248414 .43598939 .071243289 .43998719 .036132814 .46299745-.005859375 .5139923-.005859375 .5209961-.005859375 .6349945-.005859375 .6349945 .09013367V.090148929M.42399598 .14213562C.42399598 .03224182 .3039856 .022247315 .2789917 .022247315 .21998596 .022247315 .1639862 .053253175 .1639862 .10523987 .1639862 .13824463 .18499756 .23022461 .42399598 .24023438V.14213562Z"/>
<path id="font_2_50" d="M.5469971 .119155887C.5469971 .13623047 .5309906 .13623047 .526001 .13623047 .5109863 .13623047 .5089874 .1322174 .5029907 .11816406 .47499085 .049209596 .40098573 .025253296 .34498597 .025253296 .2639923 .025253296 .21899414 .07017517 .20399475 .0871582 .16499329 .13522339 .16499329 .19847107 .16499329 .22558594H.5169983C.5379944 .22558594 .5469971 .22558594 .5469971 .24957276 .5469971 .31645204 .5109863 .4482422 .32398988 .4482422 .17199707 .4482422 .06498718 .3390503 .06498718 .21984864 .06498718 .09310913 .18699646-.0107421879 .33898927-.0107421879 .49798585-.0107421879 .5469971 .100097659 .5469971 .11906433V.119155887M.46998597 .25585938H.16699219C.1789856 .38816834 .27598573 .41523744 .32299806 .41523744 .46199037 .41523744 .46899415 .28492738 .46998597 .25585938Z"/>
<path id="font_2_47" d="M.6729889 0V.04399109C.598999 .04399109 .58999636 .050994874 .58999636 .10002136V.69433596L.42199708 .6826172V.63861086C.49598695 .63861086 .5049896 .6316376 .5049896 .5828247V.3883667C.48298646 .40737916 .42900086 .4423828 .34599305 .4423828 .19599915 .4423828 .07199097 .34135438 .07199097 .21531677 .07199097 .0942688 .18499756-.0107421879 .33399964-.0107421879 .41600038-.0107421879 .47299195 .025253296 .5009918 .04925537V-.0107421879L.6729889 0M.5009918 .10899353C.45298768 .03526306 .3789978 .022247315 .33999635 .022247315 .2899933 .022247315 .23999024 .042266847 .20698548 .08628845 .1749878 .12731934 .17199707 .18435669 .17199707 .21539307 .17199707 .24240113 .17399597 .30845643 .21699524 .3544922 .2519989 .39048768 .3039856 .40948487 .35299684 .40948487 .38198854 .40948487 .45298768 .40348817 .5009918 .33546449V.10899353Z"/>
</defs>
<path transform="matrix(1.00003,0,0,-1.00006,37.021577,30.147849)" stroke-width=".3985" stroke-linecap="butt" stroke-miterlimit="10" stroke-linejoin="miter" fill="none" stroke="#000000" d="M0 0H28.3468V28.3468H0V0"/>
<use data-text="P" xlink:href="#font_1_1" transform="matrix(9.962899,0,0,-9.963197,47.304887,19.378203)"/>
<path transform="matrix(1.00003,0,0,-1.00006,37.021577,30.147849)" stroke-width=".3985" stroke-linecap="butt" stroke-miterlimit="10" stroke-linejoin="miter" fill="none" stroke="#000000" d="M-35.43349 21.2601H-.45827"/>
<path transform="matrix(1.00003,0,0,-1.00006,36.563295,8.886475)" stroke-width=".31879" stroke-linecap="round" stroke-linejoin="round" fill="none" stroke="#000000" d="M-1.19551 1.59401C-1.09587 .99626 0 .09961 .29886 0 0-.09961-1.09587-.99626-1.19551-1.59401"/>
<use data-text="b" xlink:href="#font_2_35" transform="matrix(4.9814498,0,0,-4.9815986,11.864822,15.863992)"/>
<use data-text="i" xlink:href="#font_2_66" transform="matrix(4.9814498,0,0,-4.9815986,15.600906,15.863992)"/>
<use data-text="r" xlink:href="#font_2_96" transform="matrix(4.9814498,0,0,-4.9815986,17.608429,15.863992)"/>
<use data-text="t" xlink:href="#font_2_105" transform="matrix(4.9814498,0,0,-4.9815986,20.30838,15.863992)"/>
<use data-text="h" xlink:href="#font_2_63" transform="matrix(4.9814498,0,0,-4.9815986,23.008316,15.863992)"/>
<path transform="matrix(1.00003,0,0,-1.00006,37.021577,30.147849)" stroke-width=".3985" stroke-linecap="butt" stroke-miterlimit="10" stroke-linejoin="miter" fill="none" stroke="#000000" d="M-35.43349 7.08669H-.45827"/>
<path transform="matrix(1.00003,0,0,-1.00006,36.563295,23.060734)" stroke-width=".31879" stroke-linecap="round" stroke-linejoin="round" fill="none" stroke="#000000" d="M-1.19551 1.59401C-1.09587 .99626 0 .09961 .29886 0 0-.09961-1.09587-.99626-1.19551-1.59401"/>
<use data-text="i" xlink:href="#font_2_66" transform="matrix(4.9814498,0,0,-4.9815986,4.2175905,29.873833)"/>
<use data-text="m" xlink:href="#font_2_75" transform="matrix(4.9814498,0,0,-4.9815986,6.225113,29.873833)"/>
<use data-text="m" xlink:href="#font_2_75" transform="matrix(4.9814498,0,0,-4.9815986,11.689758,29.873833)"/>
<use data-text="i" xlink:href="#font_2_66" transform="matrix(4.9814498,0,0,-4.9815986,17.154419,29.873833)"/>
<use data-text="g" xlink:href="#font_2_59" transform="matrix(4.9814498,0,0,-4.9815986,19.161942,29.873833)"/>
<use data-text="r" xlink:href="#font_2_96" transform="matrix(4.9814498,0,0,-4.9815986,22.554306,29.873833)"/>
<use data-text="a" xlink:href="#font_2_28" transform="matrix(4.9814498,0,0,-4.9815986,25.254258,29.873833)"/>
<use data-text="t" xlink:href="#font_2_105" transform="matrix(4.9814498,0,0,-4.9815986,28.646622,29.873833)"/>
<use data-text="e" xlink:href="#font_2_50" transform="matrix(4.9814498,0,0,-4.9815986,31.346573,29.873833)"/>
<path transform="matrix(1.00003,0,0,-1.00006,37.021577,30.147849)" stroke-width=".3985" stroke-linecap="butt" stroke-miterlimit="10" stroke-linejoin="miter" fill="none" stroke="#000000" d="M28.3468 21.2601H63.32202"/>
<path transform="matrix(1.00003,0,0,-1.00006,100.345508,8.886475)" stroke-width=".31879" stroke-linecap="round" stroke-linejoin="round" fill="none" stroke="#000000" d="M-1.19551 1.59401C-1.09587 .99626 0 .09961 .29886 0 0-.09961-1.09587-.99626-1.19551-1.59401"/>
<use data-text="d" xlink:href="#font_2_47" transform="matrix(4.9814498,0,0,-4.9815986,74.78271,15.863992)"/>
<use data-text="e" xlink:href="#font_2_50" transform="matrix(4.9814498,0,0,-4.9815986,78.51879,15.863992)"/>
<use data-text="a" xlink:href="#font_2_28" transform="matrix(4.9814498,0,0,-4.9815986,81.562458,15.863992)"/>
<use data-text="t" xlink:href="#font_2_105" transform="matrix(4.9814498,0,0,-4.9815986,84.95483,15.863992)"/>
<use data-text="h" xlink:href="#font_2_63" transform="matrix(4.9814498,0,0,-4.9815986,87.65478,15.863992)"/>
<path transform="matrix(1.00003,0,0,-1.00006,37.021577,30.147849)" stroke-width=".3985" stroke-linecap="butt" stroke-miterlimit="10" stroke-linejoin="miter" fill="none" stroke="#000000" d="M28.3468 7.08669H63.32202"/>
<path transform="matrix(1.00003,0,0,-1.00006,100.345508,23.060734)" stroke-width=".31879" stroke-linecap="round" stroke-linejoin="round" fill="none" stroke="#000000" d="M-1.19551 1.59401C-1.09587 .99626 0 .09961 .29886 0 0-.09961-1.09587-.99626-1.19551-1.59401"/>
<use data-text="e" xlink:href="#font_2_50" transform="matrix(4.9814498,0,0,-4.9815986,70.21457,29.873833)"/>
<use data-text="m" xlink:href="#font_2_75" transform="matrix(4.9814498,0,0,-4.9815986,73.25824,29.873833)"/>
<use data-text="i" xlink:href="#font_2_66" transform="matrix(4.9814498,0,0,-4.9815986,78.722888,29.873833)"/>
<use data-text="g" xlink:href="#font_2_59" transform="matrix(4.9814498,0,0,-4.9815986,80.73041,29.873833)"/>
<use data-text="r" xlink:href="#font_2_96" transform="matrix(4.9814498,0,0,-4.9815986,84.12279,29.873833)"/>
<use data-text="a" xlink:href="#font_2_28" transform="matrix(4.9814498,0,0,-4.9815986,86.82272,29.873833)"/>
<use data-text="t" xlink:href="#font_2_105" transform="matrix(4.9814498,0,0,-4.9815986,90.2151,29.873833)"/>
<use data-text="e" xlink:href="#font_2_50" transform="matrix(4.9814498,0,0,-4.9815986,92.91504,29.873833)"/>
</svg>
