<svg xmlns="http://www.w3.org/2000/svg" xmlns:xlink="http://www.w3.org/1999/xlink" xmlns:inkscape="http://www.inkscape.org/namespaces/inkscape" version="1.1" width="213" height="165" viewBox="0 0 213 165">
<defs>
<path id="font_1_2" d="M.375 .6136017C.3809967 .63760378 .38398744 .6476135 .40299989 .65060427 .4119873 .6516113 .44400025 .6516113 .46398927 .6516113 .5349884 .6516113 .6459961 .6516113 .6459961 .5525818 .6459961 .51856997 .6299896 .44955445 .59098818 .41055299 .5649872 .38453675 .5119934 .35253907 .42199708 .35253907H.30999757L.375 .6136017M.5189972 .33953858C.6199951 .3615265 .7389984 .43154908 .7389984 .5325775 .7389984 .61860659 .6489868 .6826172 .5179901 .6826172H.23298645C.21299744 .6826172 .20399475 .6826172 .20399475 .6626129 .20399475 .6516113 .21299744 .6516113 .23199463 .6516113 .23399353 .6516113 .25299073 .6516113 .269989 .6496124 .28799439 .6476135 .29699708 .64660647 .29699708 .63360598 .29699708 .62960818 .29599 .6266022 .29299928 .6145935L.15899658 .07752991C.14898682 .038528444 .14698792 .030532837 .067993167 .030532837 .049987794 .030532837 .040985109 .030532837 .040985109 .010528564 .040985109-.00047302247 .052993776-.00047302247 .054992677-.00047302247 .08299255-.00047302247 .15299988 .002532959 .18099976 .002532959 .20899964 .002532959 .27999879-.00047302247 .30799867-.00047302247 .31599427-.00047302247 .32798768-.00047302247 .32798768 .01953125 .32798768 .030532837 .31900025 .030532837 .2999878 .030532837 .2630005 .030532837 .23498535 .030532837 .23498535 .048538209 .23498535 .054534913 .23699951 .059524537 .23799134 .0655365L.3039856 .3305359H.4229889C.5139923 .3305359 .5319977 .27453614 .5319977 .23953247 .5319977 .22453308 .5239868 .19352722 .5179901 .17053223 .5109863 .14253235 .5019989 .105529788 .5019989 .08552551 .5019989-.022460938 .621994-.022460938 .6349945-.022460938 .7200012-.022460938 .7549896 .07853699 .7549896 .0925293 .7549896 .104537967 .74398806 .104537967 .7429962 .104537967 .73399356 .104537967 .7319946 .09753418 .7299957 .090530399 .7049866 .016525269 .6619873-.00047302247 .6389923-.00047302247 .60598757-.00047302247 .598999 .021530152 .598999 .060531618 .598999 .091537479 .6049957 .14253235 .60899356 .17453003 .61099246 .1885376 .61299136 .20753479 .61299136 .2215271 .61299136 .2985382 .54599 .3295288 .5189972 .33953858Z"/>
<path id="font_2_2" d="M.82199099 .3032837C.82199099 .3903656 .7789917 .44140626 .6719971 .44140626 .59298709 .44140626 .5389862 .39837647 .5119934 .34832765 .49198915 .41940309 .43798829 .44140626 .36499024 .44140626 .2829895 .44140626 .22999573 .39637757 .20199585 .34432984H.20098877V.44140626L.053985597 .43040467V.39437867C.12098694 .39437867 .1289978 .38737489 .1289978 .33831788V.07904053C.1289978 .035995485 .11898804 .035995485 .053985597 .035995485V0C.055999757 0 .12599182 .0039978029 .16799927 .0039978029 .20498657 .0039978029 .27398683 .0009918213 .2829895 0V.035995485C.21798706 .035995485 .20799256 .035995485 .20799256 .07904053V.25923158C.20799256 .36434938 .29100038 .4133911 .35699464 .4133911 .4269867 .4133911 .43598939 .3583374 .43598939 .3072815V.07904053C.43598939 .035995485 .42599488 .035995485 .36099244 .035995485V0C.36299134 0 .43299867 .0039978029 .47499085 .0039978029 .5119934 .0039978029 .58099368 .0009918213 .58999636 0V.035995485C.5249939 .035995485 .5149994 .035995485 .5149994 .07904053V.25923158C.5149994 .36434938 .59799197 .4133911 .6639862 .4133911 .73399356 .4133911 .7429962 .3583374 .7429962 .3072815V.07904053C.7429962 .035995485 .73298647 .035995485 .66799929 .035995485V0C.66999819 0 .73999026 .0039978029 .7819977 .0039978029 .81900027 .0039978029 .8880005 .0009918213 .8969879 0V.035995485C.83200076 .035995485 .82199099 .035995485 .82199099 .07904053V.3032837Z"/>
<path id="font_2_1" d="M.44599916 .26823426C.44599916 .32154847 .44599916 .35954286 .3999939 .3965149 .35899354 .4302826 .31098939 .44628907 .2519989 .44628907 .15699768 .44628907 .08999634 .41036988 .08999634 .34954835 .08999634 .31755067 .11199951 .30055238 .13798523 .30055238 .16499329 .30055238 .18499756 .32054139 .18499756 .34754945 .18499756 .36454774 .1769867 .38554383 .1499939 .3935547 .18598938 .41827394 .24398804 .41827394 .25 .41827394 .30599977 .41827394 .36698915 .38154603 .36698915 .29751588V.2662201C.31199647 .2642212 .24598694 .26123048 .17298889 .23422241 .08299255 .20123291 .054992677 .14622498 .054992677 .10122681 .054992677 .0152282719 .15899658-.009765625 .22999573-.009765625 .30999757-.009765625 .35699464 .035232545 .37799073 .07423401 .38198854 .033233644 .40899659-.004776001 .45498658-.004776001 .45700074-.004776001 .55400088-.004776001 .55400088 .09022522V.14523316H.519989V.0912323C.519989 .081222537 .519989 .033233644 .48298646 .033233644 .44599916 .033233644 .44599916 .08023071 .44599916 .0932312V.26823426M.36698915 .1412201C.36698915 .04522705 .2829895 .018234253 .23799134 .018234253 .18699646 .018234253 .13899231 .052230836 .13899231 .10122681 .13899231 .15621948 .18699646 .23323059 .36698915 .24023438V.1412201Z"/>
<path id="font_2_3" d="M.33898927 .22381592C.33799745 .224823 .33099366 .23280335 .33099366 .23381043 .33099366 .23680115 .39698792 .30773927 .4059906 .31672669 .44099427 .35569764 .47599793 .3936615 .5549927 .39465333V.43066407C.5269928 .4286499 .49798585 .426651 .47099305 .426651 .44099427 .426651 .4019928 .42765809 .37199403 .43066407V.39465333C.3889923 .3916626 .3919983 .38067628 .3919983 .37167359 .3919983 .36967469 .3919983 .35469056 .3769989 .33770753L.30699159 .25878907 .22399903 .35369874C.21398926 .36468507 .21299744 .36967469 .21299744 .3736725 .21299744 .38865663 .22698975 .39465333 .23999024 .39465333V.43066407C.20298767 .42765809 .16499329 .426651 .12799073 .426651 .09799194 .426651 .05999756 .42765809 .0309906 .43066407V.39465333C.07699585 .39465333 .102996829 .39465333 .1289978 .36468507L.2539978 .2208252C.25498963 .21981812 .2619934 .21182251 .2619934 .21083069 .2619934 .2078247 .18699646 .12591553 .1769867 .11491394 .13999939 .07495117 .10598755 .037994386 .025985718 .035995485V0C.055999757 .0019989014 .07798767 .0039978029 .10899353 .0039978029 .13899231 .0039978029 .1789856 .0029907227 .20899964 0V.035995485C.19699097 .037994386 .18899536 .04498291 .18899536 .05897522 .18899536 .07795715 .19999695 .09094238 .21598816 .107925418L.28599549 .18486023 .37298585 .08595276C.3919983 .064971927 .3919983 .06297302 .3919983 .05697632 .3919983 .036987306 .36898805 .035995485 .36499024 .035995485V0C.37399293 .0009918213 .44599916 .0039978029 .47799684 .0039978029 .5099945 .0039978029 .5419922 .0029907227 .57398989 0V.035995485C.5069885 .035995485 .49899293 .041992189 .47599793 .06796265L.33898927 .22381592Z"/>
<clipPath id="clip_3">
<path transform="matrix(1.00003,0,0,-1.00003,16.804177,165.22548)" d="M0 2.02881H194.27399V163.42319H0Z"/>
</clipPath>
<path id="font_1_1" d="M.43798829 .0055236818C.59298709 .0644989 .73999026 .24256897 .73999026 .43579103 .73999026 .5969696 .6339874 .7050781 .4850006 .7050781 .2689972 .7050781 .04899597 .47784425 .04899597 .24456787 .04899597 .07847595 .16099549-.022460938 .30499269-.022460938 .32998658-.022460938 .3639984-.018463135 .40299989-.007461548 .39898683-.06939697 .39898683-.071380618 .39898683-.084365848 .39898683-.11634827 .39898683-.19433594 .48199464-.19433594 .6009979-.19433594 .6489868-.011474609 .6489868-.00047302247 .6489868 .0065307619 .6419983 .009521484 .6380005 .009521484 .6299896 .009521484 .6279907 .0045318605 .6259918-.0014648438 .60198977-.072387699 .5439911-.097335819 .5089874-.097335819 .46299745-.097335819 .44799806-.070388797 .43798829 .0055236818M.24899292 .013519287C.17098999 .044509889 .13699341 .12245178 .13699341 .21252442 .13699341 .2816162 .16299439 .4237671 .23899842 .5319061 .31199647 .63401797 .4059906 .68006899 .47898866 .68006899 .57899478 .68006899 .6519928 .6019745 .6519928 .4678192 .6519928 .3677063 .6009979 .13345337 .43299867 .039505006 .42799378 .07447815 .41799928 .14746094 .34498597 .14746094 .2919922 .14746094 .24299622 .097473148 .24299622 .04550171 .24299622 .025512696 .24899292 .014526367 .24899292 .013519287M.31098939 .002532959C.29699708 .002532959 .2649994 .002532959 .2649994 .04550171 .2649994 .08547974 .30299378 .12545777 .34498597 .12545777 .3869934 .12545777 .4059906 .10147095 .4059906 .040512086 .4059906 .025512696 .40499879 .024520874 .394989 .020523072 .36898805 .009521484 .33898927 .002532959 .31098939 .002532959Z"/>
<path id="font_4_98" d="M.3600006 .12823487C.3600006 .18122864 .32998658 .21122742 .31799317 .22323609 .2849884 .25523377 .24598694 .26322938 .20399475 .27124024 .147995 .28224183 .08099365 .29522706 .08099365 .35324098 .08099365 .38822938 .10699463 .42922975 .19299317 .42922975 .30299378 .42922975 .30799867 .3392334 .30999757 .30822755 .31098939 .2992401 .32199098 .2992401 .32199098 .2992401 .33499146 .2992401 .33499146 .30422975 .33499146 .32322694V.4242401C.33499146 .4412384 .33499146 .4482422 .32398988 .4482422 .31900025 .4482422 .31698609 .4482422 .3039856 .43623353 .30099488 .43223573 .29100038 .42323304 .2869873 .42022706 .24899292 .4482422 .20799256 .4482422 .19299317 .4482422 .070999149 .4482422 .032989503 .38124085 .032989503 .3252411 .032989503 .29023744 .04899597 .26223756 .07598877 .24023438 .10798645 .2142334 .13598633 .2082367 .20799256 .19422913 .22999573 .19021607 .31199647 .17422486 .31199647 .10221863 .31199647 .051223756 .2769928 .011245728 .19898987 .011245728 .114990238 .011245728 .07899475 .068222049 .05999756 .1532135 .056991579 .16621399 .055999757 .17021179 .04598999 .17021179 .032989503 .17021179 .032989503 .16322327 .032989503 .1452179V.013214111C.032989503-.003753662 .032989503-.0107421879 .04399109-.0107421879 .04899597-.0107421879 .049987794-.009750366 .068984989 .009246826 .070999149 .011245728 .070999149 .013214111 .08898926 .032226564 .1329956-.009750366 .17799378-.0107421879 .19898987-.0107421879 .31399537-.0107421879 .3600006 .05621338 .3600006 .1282196V.12823487Z"/>
<path id="font_4_84" d="M.5209961 .21636963C.5209961 .34336854 .42399598 .4423828 .31199647 .4423828 .23399353 .4423828 .19198609 .39837647 .17199707 .3763733V.4423828L.027999878 .43066407V.3996582C.09899902 .3996582 .10598755 .3936615 .10598755 .34973146V-.117996219C.10598755-.16308594 .09498596-.16308594 .027999878-.16308594V-.1940918L.13999939-.19110108 .25299073-.1940918V-.16308594C.18598938-.16308594 .1749878-.16308594 .1749878-.117996219V.050186159 .059173585C.17999268 .04319763 .22200012-.0107421879 .2979889-.0107421879 .4169922-.0107421879 .5209961 .087127689 .5209961 .21594239V.21636963M.43798829 .21594239C.43798829 .09512329 .36799623 .011245728 .2939911 .011245728 .2539978 .011245728 .21598816 .031219483 .18899536 .07215881 .1749878 .09312439 .1749878 .09411621 .1749878 .114089969V.33674623C.20399475 .38838197 .25299073 .41737367 .3039856 .41737367 .3769989 .41737367 .43798829 .32937623 .43798829 .21636963V.21594239Z"/>
<path id="font_4_50" d="M.4149933 .11933899C.4149933 .12934876 .40699769 .13134766 .4019928 .13134766 .3929901 .13134766 .3909912 .12535095 .3889923 .11734009 .35398866 .014251709 .2639923 .014251709 .2539978 .014251709 .20399475 .014251709 .1639862 .044281007 .14099121 .08131409 .11099243 .12934876 .11099243 .19540406 .11099243 .23144531H.3899994C.4119873 .23144531 .4149933 .23144531 .4149933 .2524414 .4149933 .35131837 .36099244 .4482422 .23599243 .4482422 .11999512 .4482422 .027999878 .34532167 .027999878 .22042847 .027999878 .08631897 .1329956-.0107421879 .24798584-.0107421879 .36999513-.0107421879 .4149933 .10032654 .4149933 .11933899M.34899903 .2524414H.11199951C.117996219 .40126039 .20199585 .426239 .23599243 .426239 .33898927 .426239 .34899903 .2913971 .34899903 .2524414Z"/>
<path id="font_4_43" d="M.4149933 .119140628C.4149933 .12911988 .40499879 .12911988 .4019928 .12911988 .3929901 .12911988 .3909912 .12512207 .3889923 .119140628 .3600006 .026229859 .29499818 .014251709 .2579956 .014251709 .20498657 .014251709 .116989139 .0572052 .116989139 .21801758 .116989139 .38093568 .19898987 .42323304 .2519989 .42323304 .26098634 .42323304 .32398988 .42222596 .35899354 .38594056 .31799317 .38293458 .31199647 .3529358 .31199647 .3399353 .31199647 .31393434 .32998658 .2939453 .35798646 .2939453 .38398744 .2939453 .4039917 .3109436 .4039917 .34094239 .4039917 .40911866 .32798768 .4482422 .25099183 .4482422 .12599182 .4482422 .033996583 .3399353 .033996583 .21601868 .033996583 .08816528 .1329956-.0107421879 .24899292-.0107421879 .3829956-.0107421879 .4149933 .10914612 .4149933 .119140628Z"/>
<path id="font_4_66" d="M.24699402 0V.0309906C.18099976 .0309906 .1769867 .035995485 .1769867 .075042728V.4423828L.036987306 .43066407V.3996582C.101989749 .3996582 .11099243 .3936615 .11099243 .3447113V.07595825C.11099243 .0309906 .099990848 .0309906 .032989503 .0309906V0L.14299011 .0029907227C.17799378 .0029907227 .21299744 .0009918213 .24699402 0M.19198609 .603775C.19198609 .6307678 .16899109 .6567688 .13899231 .6567688 .10499573 .6567688 .084991458 .6287689 .084991458 .603775 .084991458 .57676699 .10798645 .55078127 .13798523 .55078127 .17199707 .55078127 .19198609 .5787811 .19198609 .603775Z"/>
<path id="font_4_125" d="M.5269928 0V.0309906C.45999146 .0309906 .44898988 .0309906 .44898988 .07595825V.44265748L.32299806 .4336548C.30699159 .43266297 .30499269 .43165589 .30499269 .43165589 .30299378 .43066407 .30099488 .43066407 .2869873 .43066407H.16899109V.5436554C.16899109 .64260867 .25498963 .68307498 .31698609 .68307498 .34700013 .68307498 .3829956 .6729431 .40299989 .64964297 .3619995 .6476288 .35598756 .61961367 .35598756 .6036072 .35598756 .5706024 .38198854 .5576172 .40098573 .5576172 .42399598 .5576172 .44699098 .5736084 .44699098 .6036072 .44699098 .6628113 .3919983 .7050781 .31799317 .7050781 .22499085 .7050781 .10598755 .6537018 .10598755 .5446167V.43066407H.026992798V.3996582H.10598755V.07595825C.10598755 .0309906 .09498596 .0309906 .027999878 .0309906V0L.13899231 .0029907227 .25 0V.0309906C.18299866 .0309906 .17199707 .0309906 .17199707 .07595825V.3996582H.32998658C.37599183 .3996582 .3829956 .38667298 .3829956 .34570313V.07595825C.3829956 .0309906 .37199403 .0309906 .30499269 .0309906V0L.41600038 .0029907227 .5269928 0Z"/>
<path id="font_4_96" d="M.3639984 .38137818C.3639984 .41337586 .33299256 .4423828 .2899933 .4423828 .21699524 .4423828 .18099976 .37538148 .16699219 .3323822V.4423828L.027999878 .43066407V.3996582C.09799194 .3996582 .10598755 .39266969 .10598755 .34370423V.07595825C.10598755 .0309906 .09498596 .0309906 .027999878 .0309906V0L.14199829 .0029907227C.18199158 .0029907227 .22898865 .0029907227 .2689972 0V.0309906H.24798584C.17399597 .0309906 .17199707 .04197693 .17199707 .07795715V.23181153C.17199707 .33137513 .21398926 .42037965 .2899933 .42037965 .29699708 .42037965 .29899598 .42037965 .30099488 .41937257 .2979889 .41838075 .27799989 .40637208 .27799989 .3803711 .27799989 .35237123 .29899598 .33737184 .32099916 .33737184 .33898927 .33737184 .3639984 .3493805 .3639984 .38137818Z"/>
<path id="font_4_28" d="M.48298646 .08912659V.14511109H.45799256V.08912659C.45799256 .03112793 .43299867 .025131226 .42199708 .025131226 .3889923 .025131226 .3849945 .070129398 .3849945 .07511902V.27508546C.3849945 .31707765 .3849945 .3560791 .34899903 .39312745 .30999757 .43223573 .2599945 .4482422 .21199036 .4482422 .12998963 .4482422 .06098938 .40115357 .06098938 .335083 .06098938 .30508424 .08099365 .28808595 .10699463 .28808595 .1349945 .28808595 .15299988 .30807496 .15299988 .33407594 .15299988 .3460846 .147995 .37908937 .101989749 .38008119 .1289978 .41519166 .17799378 .426239 .20999146 .426239 .25898744 .426239 .31599427 .38710023 .31599427 .29808045V.26107789C.2649994 .25808717 .19499207 .25508119 .13198853 .22509766 .056991579 .19110108 .03199768 .13911438 .03199768 .09512329 .03199768 .014251709 .1289978-.0107421879 .19198609-.0107421879 .2579956-.0107421879 .3039856 .029251099 .32299806 .07624817 .32699586 .036132814 .35398866-.005859375 .40098573-.005859375 .42199708-.005859375 .48298646 .008132935 .48298646 .08912659M.31599427 .14013672C.31599427 .04525757 .24398804 .011245728 .19898987 .011245728 .1499939 .011245728 .10899353 .04624939 .10899353 .09625244 .10899353 .15124512 .15098572 .23425293 .31599427 .24024964V.14013672Z"/>
<path id="font_4_105" d="M.33198548 .12385559V.18066406H.30699159V.12585449C.30699159 .052108766 .2769928 .014251709 .23999024 .014251709 .17298889 .014251709 .17298889 .10491943 .17298889 .12187195V.3996582H.31599427V.43066407H.17298889V.6142578H.147995C.14698792 .5324249 .116989139 .42565919 .018997193 .42166139V.3996582H.10398865V.12408447C.10398865 .0012512207 .19699097-.0107421879 .23298645-.0107421879 .3039856-.0107421879 .33198548 .060180665 .33198548 .12408447V.12385559Z"/>
</defs>
<path transform="matrix(1.00003,0,0,-1.00003,16.804177,165.22548)" stroke-width=".19925" stroke-linecap="butt" stroke-miterlimit="10" stroke-linejoin="miter" fill="none" stroke="#929292" d=""/>
<path transform="matrix(1.00003,0,0,-1.00003,16.804177,165.22548)" stroke-width=".19925" stroke-linecap="butt" stroke-miterlimit="10" stroke-linejoin="miter" fill="none" stroke="#929292" d="M10.01604 115.95425H14.26817"/>
<path transform="matrix(1.00003,0,0,-1.00003,16.804177,165.22548)" stroke-width=".3985" stroke-linecap="butt" stroke-miterlimit="10" stroke-linejoin="miter" fill="none" stroke="#000000" d="M0 21.01637H192.28145"/>
<path transform="matrix(1.00003,0,0,-1.00003,209.0914,144.20848)" d="M1.99252 0-1.19551 1.59401 0 0-1.19551-1.59401"/>
<path transform="matrix(1.00003,0,0,-1.00003,16.804177,165.22548)" stroke-width=".3985" stroke-linecap="butt" stroke-miterlimit="10" stroke-linejoin="miter" fill="none" stroke="#000000" d="M12.14212 2.02881V161.43067"/>
<path transform="matrix(0,-1.00003,-1.00003,-0,28.946661,3.7899628)" d="M1.99252 0-1.19551 1.59401 0 0-1.19551-1.59401"/>
<use data-text="R" xlink:href="#font_1_2" transform="matrix(9.962899,0,0,-9.962899,.53469088,51.92408)"/>
<use data-text="m" xlink:href="#font_2_2" transform="matrix(6.9740097,0,0,-6.9740097,8.099922,53.41813)"/>
<use data-text="a" xlink:href="#font_2_1" transform="matrix(6.9740097,0,0,-6.9740097,14.641548,53.41813)"/>
<use data-text="x" xlink:href="#font_2_3" transform="matrix(6.9740097,0,0,-6.9740097,18.609749,53.41813)"/>
<g clip-path="url(#clip_3)">
<path transform="matrix(1.00003,0,0,-1.00003,16.804177,165.22548)" stroke-width=".79701" stroke-linecap="butt" stroke-miterlimit="10" stroke-linejoin="miter" fill="none" stroke="#ff0000" d="M12.14212 21.01637 14.67168 24.97206 17.20125 28.92775 19.73082 32.88342 22.26039 36.8391 24.78995 40.79477 27.31953 44.75047 29.84909 48.70615 32.37866 52.66182 34.90823 56.61751 37.4378 60.57318 39.96736 64.52887 42.49693 68.48456 45.0265 72.44023 47.55606 76.3959 50.08563 80.35158 52.6152 84.30728 55.14478 88.26297 57.67433 92.21864 60.20392 96.17433 62.73347 100.13 65.26305 104.0857 67.79262 108.04138 70.32219 111.99706 72.85176 115.95273"/>
<path transform="matrix(1.00003,0,0,-1.00003,16.804177,165.22548)" stroke-width=".79701" stroke-linecap="butt" stroke-miterlimit="10" stroke-linejoin="miter" fill="none" stroke="#ff0000" d="M72.85274 115.95425H77.91193 82.97113 88.03032 93.08952 98.14871 103.20792 108.26712 113.32631 118.3855 123.44469 128.50389 133.56308 138.62229 143.68149 148.74068 153.79988 158.85907 163.91828 168.97747 174.03667 179.09587 184.15506 189.21427 194.27346"/>
<path transform="matrix(1.00003,0,0,-1.00003,16.804177,165.22548)" stroke-width=".79701" stroke-linecap="butt" stroke-miterlimit="10" stroke-linejoin="miter" fill="none" stroke="#0000ff" d="M0 0 3.88547 7.19057 7.77094 13.93117 11.65643 20.25403 15.5419 26.1696 19.4274 31.73297 23.31287 36.9574 27.19833 41.85619 31.08383 46.44264 34.9693 50.75568 38.8548 54.80002 42.74026 58.58995 46.62573 62.14063 50.51123 65.4834 54.3967 68.60684 58.2822 71.54231 62.16766 74.29553 66.05313 76.87877 69.93863 79.29874 73.8241 81.57916 77.7096 83.70576 81.59506 85.7099 85.48053 87.58113 89.36601 89.34697 93.25148 90.99034 97.13696 92.53687 101.02243 93.99037 104.90791 95.35748 108.7934 96.63062 112.67886 97.82777 116.56435 98.95753 120.44981 100.01039 124.33528 100.9987 128.22078 101.91959 132.10625 102.79301 135.99173 103.61043 139.8772 104.37944 143.76267 105.09053 147.64815 105.76552 151.53362 106.4016 155.41912 106.98936 159.30458 107.5451 163.19005 108.06642 167.07553 108.55537 170.961 109.01411 174.84648 109.44435 178.73197 109.84789 182.61743 110.22646 186.50292 110.58151 190.38838 110.91457 194.27387 111.22697"/>
<path transform="matrix(1.00003,0,0,-1.00003,16.804177,165.22548)" stroke-width=".79701" stroke-linecap="butt" stroke-miterlimit="10" stroke-linejoin="miter" fill="none" stroke="#ff8000" d="M0 24.66783 3.88547 22.74045 7.77094 21.506 11.65643 21.02245 15.5419 21.31317 19.4274 22.36406 23.31287 24.1253 27.19833 26.5171 31.08383 29.43819 34.9693 32.77586 38.8548 36.41512 42.74026 40.24718 46.62573 44.1741 50.51123 48.11356 54.3967 51.99785 58.2822 55.7755 62.16766 59.40907 66.05313 62.87315 69.93863 66.15231 73.8241 69.23816 77.7096 72.13092 81.59506 74.83287 85.48053 77.34967 89.36601 79.69083 93.25148 81.863 97.13696 83.88045 101.02243 85.74976 104.90791 87.48523 108.7934 89.09348 112.67886 90.5859 116.56435 91.97105 120.44981 93.25746 124.33528 94.45082 128.22078 95.56349 132.10625 96.59737 135.99173 97.561 139.8772 98.4591 143.76267 99.2993 147.64815 100.08253 151.53362 100.81639 155.41912 101.5028 159.30458 102.14743 163.19005 102.75029 167.07553 103.31802 170.961 103.84967 174.84648 104.3519 178.73197 104.82468 182.61743 105.269 186.50292 105.68958 190.38838 106.08641 194.27387 106.46046"/>
</g>
<use data-text="Q" xlink:href="#font_1_1" transform="matrix(9.962899,0,0,-9.962899,199.72467,138.74768)"/>
<use data-text="s" xlink:href="#font_4_98" transform="matrix(9.962899,0,0,-9.962899,32.468645,12.340881)"/>
<use data-text="p" xlink:href="#font_4_84" transform="matrix(9.962899,0,0,-9.962899,36.394029,12.340881)"/>
<use data-text="e" xlink:href="#font_4_50" transform="matrix(9.962899,0,0,-9.962899,42.21234,12.340881)"/>
<use data-text="c" xlink:href="#font_4_43" transform="matrix(9.962899,0,0,-9.962899,46.63588,12.340881)"/>
<use data-text="i" xlink:href="#font_4_66" transform="matrix(9.962899,0,0,-9.962899,51.059404,12.340881)"/>
<use data-text="f" xlink:href="#font_4_125" transform="matrix(9.962899,0,0,-9.962899,53.8291,12.340881)"/>
<use data-text="c" xlink:href="#font_4_43" transform="matrix(9.962899,0,0,-9.962899,59.36847,12.340881)"/>
<use data-text="r" xlink:href="#font_4_96" transform="matrix(9.962899,0,0,-9.962899,67.10965,12.340881)"/>
<use data-text="a" xlink:href="#font_4_28" transform="matrix(9.962899,0,0,-9.962899,71.01511,12.340881)"/>
<use data-text="t" xlink:href="#font_4_105" transform="matrix(9.962899,0,0,-9.962899,75.99655,12.340881)"/>
<use data-text="e" xlink:href="#font_4_50" transform="matrix(9.962899,0,0,-9.962899,79.872119,12.340881)"/>
</svg>
