<svg xmlns="http://www.w3.org/2000/svg" xmlns:xlink="http://www.w3.org/1999/xlink" xmlns:inkscape="http://www.inkscape.org/namespaces/inkscape" version="1.1" width="197" height="165" viewBox="0 0 197 165">
<defs>
<path id="font_1_2" d="M.5089874 .40376283C.5079956 .40675355 .5039978 .41474916 .5039978 .41775514 .5039978 .41874696 .5219879 .43273927 .5329895 .44073487L.70799258 .5756531C.8019867 .64460757 .84098818 .64860537 .87098696 .6516113 .8789978 .65260317 .8889923 .6536102 .8889923 .6716156 .8889923 .6756134 .8860016 .6826172 .8779907 .6826172 .85598757 .6826172 .83099368 .6796112 .8069916 .6796112 .7709961 .6796112 .7319946 .6826172 .69599917 .6826172 .68899539 .6826172 .6769867 .6826172 .6769867 .6626129 .6769867 .65560916 .6819916 .65260317 .68899539 .6516113 .71099856 .6496124 .7200012 .64460757 .7200012 .63061526 .7200012 .6126251 .6899872 .5896454 .6839905 .5846405L.2939911 .28483583 .37399293 .6056366C.3829956 .6416168 .3849945 .6516113 .45799256 .6516113 .48298646 .6516113 .49198915 .6516113 .49198915 .6716156 .49198915 .680603 .48399354 .6826172 .47799684 .6826172 .44999696 .6826172 .37799073 .6796112 .34999085 .6796112 .32099916 .6796112 .25 .6826172 .22099304 .6826172 .21398926 .6826172 .20098877 .6826172 .20098877 .66360476 .20098877 .6516113 .20999146 .6516113 .22999573 .6516113 .24299622 .6516113 .26098634 .65060427 .272995 .6496124 .2889862 .6476135 .29499818 .64460757 .29499818 .6336212 .29499818 .6296234 .2939911 .62661746 .29100038 .614624L.15699768 .07795715C.14698792 .038986207 .14498902 .0309906 .06599426 .0309906 .04899597 .0309906 .037994386 .0309906 .037994386 .011993408 .037994386 0 .049987794 0 .052993776 0 .08099365 0 .1519928 .0029907227 .17999268 .0029907227 .20098877 .0029907227 .22299195 .0019989014 .24398804 .0019989014 .2659912 .0019989014 .28799439 0 .30899049 0 .31599427 0 .32899476 0 .32899476 .019989014 .32899476 .0309906 .31999208 .0309906 .30099488 .0309906 .2639923 .0309906 .23599243 .0309906 .23599243 .048980714 .23599243 .05596924 .24198914 .07795715 .24499512 .09295654 .25898744 .14492798 .27198792 .19789124 .2849884 .24986267L.43399049 .3657837 .5499878 .096954349C.56199648 .06996155 .56199648 .06796265 .56199648 .061965944 .56199648 .03199768 .5189972 .0309906 .5099945 .0309906 .49899293 .0309906 .48799134 .0309906 .48799134 .010986328 .48799134 0 .5 0 .5019989 0 .5419922 0 .58399966 .0029907227 .6239929 .0029907227 .6459961 .0029907227 .69999697 0 .7220001 0 .72698977 0 .73999026 0 .73999026 .019989014 .73999026 .0309906 .72898867 .0309906 .7200012 .0309906 .67900088 .03199768 .66600039 .040985109 .651001 .07595825L.5089874 .40376283Z"/>
<path id="font_1_5" d="M.08799744 .059265138C.084991458 .044265748 .07899475 .021255494 .07899475 .01625061 .07899475-.0017547608 .09298706-.0107421879 .10798645-.0107421879 .11999512-.0107421879 .13798523-.002746582 .14498902 .01725769 .14698792 .021255494 .18099976 .15730286 .18499756 .17530823 .19299317 .20831299 .21099854 .27833558 .21699524 .30534364 .22099304 .31835938 .24899292 .36535646 .272995 .38734437 .2809906 .39434815 .30999757 .42037965 .35299684 .42037965 .3789978 .42037965 .3939972 .4083557 .394989 .4083557 .36499024 .40335084 .34298707 .37934876 .34298707 .35334779 .34298707 .33735658 .35398866 .31835938 .3809967 .31835938 .4079895 .31835938 .43598939 .34135438 .43598939 .37734986 .43598939 .41235353 .4039917 .4423828 .35299684 .4423828 .28799439 .4423828 .24398804 .39335633 .22499085 .36535646 .21699524 .4103546 .18099976 .4423828 .13398743 .4423828 .08799744 .4423828 .068984989 .40335084 .05999756 .38534547 .041992189 .35134889 .0289917 .29133607 .0289917 .28834535 .0289917 .27833558 .038986207 .27833558 .040985109 .27833558 .050994874 .27833558 .051986696 .27934266 .057998659 .30134584 .07499695 .37234498 .09498596 .42037965 .1309967 .42037965 .147995 .42037965 .1619873 .41235353 .1619873 .37435914 .1619873 .35334779 .15899658 .3423462 .1459961 .29034425L.08799744 .059265138Z"/>
<clipPath id="clip_2">
<path transform="matrix(1.00006,0,0,-1.00006,1.4141846,163.20484)" d="M0 0H194.27338V161.39795H0Z"/>
</clipPath>
<path id="font_1_3" d="M.30299378 .3157959H.47299195C.61499026 .3157959 .7539978 .41973878 .7539978 .53167727 .7539978 .6086273 .6879883 .6826172 .5569916 .6826172H.23298645C.21398926 .6826172 .20298767 .6826172 .20298767 .66360476 .20298767 .6516113 .21199036 .6516113 .23199463 .6516113 .24499512 .6516113 .2630005 .65060427 .2749939 .6496124 .29100038 .6476135 .29699708 .64460757 .29699708 .6336212 .29699708 .6296234 .29599 .62661746 .29299928 .614624L.15899658 .07795715C.14898682 .038986207 .14698792 .0309906 .067993167 .0309906 .050994874 .0309906 .039993287 .0309906 .039993287 .011993408 .039993287 0 .051986696 0 .054992677 0 .08299255 0 .1539917 .0029907227 .18199158 .0029907227 .20298767 .0029907227 .22499085 .0019989014 .24598694 .0019989014 .2679901 .0019989014 .2899933 0 .31098939 0 .31799317 0 .33099366 0 .33099366 .019989014 .33099366 .0309906 .32199098 .0309906 .30299378 .0309906 .2659912 .0309906 .23799134 .0309906 .23799134 .048980714 .23799134 .054977418 .23999024 .05996704 .24099732 .065963748L.30299378 .3157959M.375 .6136322C.38398744 .64860537 .38598634 .6516113 .42900086 .6516113H.5249939C.60798647 .6516113 .6609955 .62461856 .6609955 .55566409 .6609955 .5166931 .6409912 .43074037 .60198977 .39476014 .5519867 .34977723 .49198915 .34179688 .44799806 .34179688H.30699159L.375 .6136322Z"/>
<path id="font_3_1" d="M.5149994-1.7478027C.5169983-1.7487946 .526001-1.7587891 .5269928-1.7587891H.548996C.5519867-1.7587891 .55999758-1.7577973 .55999758-1.7487946 .55999758-1.7447968 .55799868-1.7427979 .55599978-1.7397919 .519989-1.7037964 .46598817-1.6488037 .4039917-1.5388184 .29599-1.3468323 .2559967-1.0998688 .2559967-.8598938 .2559967-.41593934 .38198854-.154953 .5569916 .022033692 .55999758 .025024414 .55999758 .028030396 .55999758 .030029297 .55999758 .040039064 .5529938 .040039064 .54100039 .040039064 .5279999 .040039064 .526001 .040039064 .5169983 .0320282 .42199708-.049972536 .31498719-.18894959 .24598694-.39993287 .20298767-.5319214 .17999268-.6929016 .17999268-.8588867 .17999268-1.0958557 .22299195-1.3638306 .37998963-1.5958099 .40699769-1.6348114 .44400025-1.6757965 .44400025-1.6768036 .45399476-1.688797 .46798707-1.7048035 .47599793-1.711792L.5149994-1.7478027Z"/>
<path id="font_4_2" d="M.2939911 .64004519C.2939911 .66400149 .2939911 .6660156 .2709961 .6660156 .20899964 .60227969 .12098694 .60227969 .08898926 .60227969V.57128909C.10899353 .57128909 .16799927 .57128909 .21998596 .5972748V.07902527C.21998596 .042999269 .21699524 .0309906 .1269989 .0309906H.09498596V0C.12998963 .0029907227 .21699524 .0029907227 .25698854 .0029907227 .29699708 .0029907227 .38398744 .0029907227 .4189911 0V.0309906H.3869934C.29699708 .0309906 .2939911 .041992189 .2939911 .07902527V.64004519Z"/>
<path id="font_5_1" d="M.6589966 .23046875C.6759949 .23046875 .69400027 .23046875 .69400027 .25045777 .69400027 .27046205 .6759949 .27046205 .6589966 .27046205H.117996219C.100997928 .27046205 .08299255 .27046205 .08299255 .25045777 .08299255 .23046875 .100997928 .23046875 .117996219 .23046875H.6589966Z"/>
<path id="font_4_1" d="M.40899659 .23046875H.6879883C.70199587 .23046875 .72099307 .23046875 .72099307 .25045777 .72099307 .27046205 .70199587 .27046205 .6879883 .27046205H.40899659V.5500183C.40899659 .56399539 .40899659 .5830078 .3889923 .5830078 .36898805 .5830078 .36898805 .56399539 .36898805 .5500183V.27046205H.08898926C.07499695 .27046205 .055999757 .27046205 .055999757 .25045777 .055999757 .23046875 .07499695 .23046875 .08898926 .23046875H.36898805V-.05000305C.36898805-.06401062 .36898805-.08300781 .3889923-.08300781 .40899659-.08300781 .40899659-.06401062 .40899659-.05000305V.23046875Z"/>
<path id="font_1_1" d="M.47698976 .23631287C.47698976 .39337159 .38398744 .4423828 .30999757 .4423828 .17298889 .4423828 .040985109 .29933167 .040985109 .15829468 .040985109 .06526184 .100997928-.0107421879 .20298767-.0107421879 .2659912-.0107421879 .33799745 .012252808 .4139862 .073272708 .4269867 .020248414 .45999146-.0107421879 .5049896-.0107421879 .55799868-.0107421879 .58898928 .044265748 .58898928 .060272218 .58898928 .06726074 .58299258 .07026672 .57699587 .07026672 .56999209 .07026672 .5669861 .06726074 .56399539 .060272218 .54599 .011245728 .5099945 .011245728 .5079956 .011245728 .47698976 .011245728 .47698976 .089279178 .47698976 .11328125 .47698976 .1342926 .47698976 .1362915 .4869995 .14828491 .58099368 .2663269 .60198977 .38235475 .60198977 .38336183 .60198977 .38536073 .6009979 .39337159 .58999636 .39337159 .5799866 .39337159 .5799866 .3903656 .57499697 .37236024 .5569916 .30934144 .5239868 .23332215 .47698976 .17430115V.23631287M.4099884 .09927368C.32199098 .022247315 .24499512 .011245728 .20498657 .011245728 .14498902 .011245728 .114990238 .056259157 .114990238 .120285037 .114990238 .16929627 .14099121 .2773285 .17298889 .32833863 .21998596 .4013672 .27398683 .42037965 .30899049 .42037965 .4079895 .42037965 .4079895 .28933717 .4079895 .21130371 .4079895 .17430115 .4079895 .11628723 .4099884 .09927368Z"/>
<path id="font_1_4" d="M.43798829 .0055236818C.59298709 .0644989 .73999026 .24256897 .73999026 .43579103 .73999026 .5969696 .6339874 .7050781 .4850006 .7050781 .2689972 .7050781 .04899597 .47784425 .04899597 .24456787 .04899597 .07847595 .16099549-.022460938 .30499269-.022460938 .32998658-.022460938 .3639984-.018463135 .40299989-.007461548 .39898683-.06939697 .39898683-.071380618 .39898683-.084365848 .39898683-.11634827 .39898683-.19433594 .48199464-.19433594 .6009979-.19433594 .6489868-.011474609 .6489868-.00047302247 .6489868 .0065307619 .6419983 .009521484 .6380005 .009521484 .6299896 .009521484 .6279907 .0045318605 .6259918-.0014648438 .60198977-.072387699 .5439911-.097335819 .5089874-.097335819 .46299745-.097335819 .44799806-.070388797 .43798829 .0055236818M.24899292 .013519287C.17098999 .044509889 .13699341 .12245178 .13699341 .21252442 .13699341 .2816162 .16299439 .4237671 .23899842 .5319061 .31199647 .63401797 .4059906 .68006899 .47898866 .68006899 .57899478 .68006899 .6519928 .6019745 .6519928 .4678192 .6519928 .3677063 .6009979 .13345337 .43299867 .039505006 .42799378 .07447815 .41799928 .14746094 .34498597 .14746094 .2919922 .14746094 .24299622 .097473148 .24299622 .04550171 .24299622 .025512696 .24899292 .014526367 .24899292 .013519287M.31098939 .002532959C.29699708 .002532959 .2649994 .002532959 .2649994 .04550171 .2649994 .08547974 .30299378 .12545777 .34498597 .12545777 .3869934 .12545777 .4059906 .10147095 .4059906 .040512086 .4059906 .025512696 .40499879 .024520874 .394989 .020523072 .36898805 .009521484 .33898927 .002532959 .31098939 .002532959Z"/>
<path id="font_3_2" d="M.41600038-.8588867C.41600038-.5719147 .34899903-.2669525 .1519928-.04197693 .13798523-.025970459 .100997928 .013031006 .07699585 .0340271 .069992069 .040039064 .067993167 .040039064 .054992677 .040039064 .04499817 .040039064 .035995485 .040039064 .035995485 .030029297 .035995485 .026031495 .039993287 .022033692 .041992189 .02003479 .07598877-.014968872 .12998963-.06996155 .19198609-.17996216 .2999878-.37193299 .33999635-.61891177 .33999635-.8588867 .33999635-1.2928467 .21998596-1.5578156 .039993287-1.740799 .037994386-1.7427979 .035995485-1.7458038 .035995485-1.7487946 .035995485-1.7587891 .04499817-1.7587891 .054992677-1.7587891 .067993167-1.7587891 .069992069-1.7587891 .07899475-1.7507935 .17399597-1.668808 .2809906-1.5298157 .34999085-1.3188324 .3939972-1.1818543 .41600038-1.019867 .41600038-.8588867Z"/>
</defs>
<path transform="matrix(1.00006,0,0,-1.00006,1.4141846,163.20484)" stroke-width=".19925" stroke-linecap="butt" stroke-miterlimit="10" stroke-linejoin="miter" fill="none" stroke="#7f807f" d="M166.52004 38.2225V42.47519"/>
<path transform="matrix(1.00006,0,0,-1.00006,1.4141846,163.20484)" stroke-width=".19925" stroke-linecap="butt" stroke-miterlimit="10" stroke-linejoin="miter" fill="none" stroke="#7f807f" d="M25.62708 141.2231H29.87958"/>
<path transform="matrix(1.00006,0,0,-1.00006,1.4141846,163.20484)" stroke-width=".3985" stroke-linecap="butt" stroke-miterlimit="10" stroke-linejoin="miter" fill="none" stroke="#000000" d="M0 40.34886H192.28086"/>
<path transform="matrix(1.00006,0,0,-1.00006,193.70658,122.85355)" d="M1.99252 0-1.19551 1.59401 0 0-1.19551-1.59401"/>
<path transform="matrix(1.00006,0,0,-1.00006,1.4141846,163.20484)" stroke-width=".3985" stroke-linecap="butt" stroke-miterlimit="10" stroke-linejoin="miter" fill="none" stroke="#000000" d="M27.75333 0V159.40543"/>
<path transform="matrix(0,-1.00006,-1.00006,-0,29.169178,3.789856)" d="M1.99252 0-1.19551 1.59401 0 0-1.19551-1.59401"/>
<use data-text="K" xlink:href="#font_1_2" transform="matrix(9.963197,0,0,-9.963197,163.35689,135.30817)"/>
<use data-text="r" xlink:href="#font_1_5" transform="matrix(9.963197,0,0,-9.963197,18.75122,24.118485)"/>
<g clip-path="url(#clip_2)">
<path transform="matrix(1.00006,0,0,-1.00006,1.4141846,163.20484)" stroke-width=".79701" stroke-linecap="butt" stroke-miterlimit="10" stroke-linejoin="miter" fill="none" stroke="#000000" d="M0 161.39795 8.09467 155.51364 16.18935 149.62935 24.28401 143.74506 32.37871 137.86078 40.47337 131.97647 48.56805 126.09218 56.66272 120.20789 64.75742 114.32356 72.85208 108.43927 80.94676 102.555 89.04143 96.67068 97.13611 90.78639 105.23077 84.9021 113.32547 79.0178 121.42015 73.1335 129.51483 67.2492 137.6095 61.36493 145.70418 55.4806 153.79885 49.59631 161.89353 43.71202 169.98819 37.82771 178.08287 31.94342 186.17754 26.05913 194.27222 20.17484"/>
<path transform="matrix(1.00006,0,0,-1.00006,1.4141846,163.20484)" stroke-width=".79701" stroke-linecap="butt" stroke-miterlimit="10" stroke-linejoin="miter" fill="none" stroke="#ff0000" d="M0 151.31053 8.09467 145.42623 16.18935 139.54193 24.28401 133.65764 32.37871 127.77335 40.47337 121.88904 48.56805 116.00476 56.66272 110.12047 64.75742 104.23615 72.85208 98.35185 80.94676 92.46756 89.04143 86.58325 97.13611 80.69896 105.23077 74.81467 113.32547 68.93039 121.42015 63.04608 129.51483 57.16179 137.6095 51.2775 145.70418 45.39317 153.79885 39.50888 161.89353 33.62459 169.98819 27.7403 178.08287 21.856 186.17754 15.97171 194.27222 10.08742"/>
<path transform="matrix(1.00006,0,0,-1.00006,1.4141846,163.20484)" stroke-width=".79701" stroke-linecap="butt" stroke-miterlimit="10" stroke-linejoin="miter" fill="none" stroke="#ff8000" d="M0 141.2231 8.09467 135.3388 16.18935 129.45452 24.28401 123.57022 32.37871 117.68593 40.47337 111.80162 48.56805 105.91733 56.66272 100.03304 64.75742 94.14871 72.85208 88.26442 80.94676 82.38014 89.04143 76.49583 97.13611 70.61154 105.23077 64.72725 113.32547 58.84296 121.42015 52.95865 129.51483 47.07436 137.6095 41.19008 145.70418 35.30576 153.79885 29.42146 161.89353 23.53717 169.98819 17.65286 178.08287 11.76857 186.17754 5.88428 194.27222 0"/>
</g>
<use data-text="P" xlink:href="#font_1_3" transform="matrix(9.963197,0,0,-9.963197,184.42816,119.3272)"/>
<use data-text="r" xlink:href="#font_1_5" transform="matrix(9.963197,0,0,-9.963197,32.68906,18.84018)"/>
<use data-text="(" xlink:href="#font_3_1" transform="matrix(9.963197,0,0,-9.963197,37.460348,7.7805025)"/>
<use data-text="1" xlink:href="#font_4_2" transform="matrix(9.963197,0,0,-9.963197,43.4107,18.84018)"/>
<use data-text="&#x2212;" xlink:href="#font_5_1" transform="matrix(9.963197,0,0,-9.963197,50.606138,18.84018)"/>
<use data-text="P" xlink:href="#font_1_3" transform="matrix(9.963197,0,0,-9.963197,61.764799,12.099762)"/>
<use data-text="+" xlink:href="#font_4_1" transform="matrix(9.963197,0,0,-9.963197,71.7594,12.099762)"/>
<use data-text="&#x03b1;" xlink:href="#font_1_1" transform="matrix(9.963197,0,0,-9.963197,81.72299,12.099762)"/>
<use data-text="Q" xlink:href="#font_1_4" transform="matrix(9.963197,0,0,-9.963197,88.11937,12.099762)"/>
<path transform="matrix(1.00006,0,0,-1.00006,-53.929136,-128.17464)" stroke-width=".3985" stroke-linecap="butt" stroke-miterlimit="10" stroke-linejoin="miter" fill="none" stroke="#000000" d="M115.687-144.515H149.93"/>
<use data-text="K" xlink:href="#font_1_2" transform="matrix(9.963197,0,0,-9.963197,74.30055,25.674592)"/>
<use data-text=")" xlink:href="#font_3_2" transform="matrix(9.963197,0,0,-9.963197,97.204929,7.7805025)"/>
</svg>
