<svg xmlns="http://www.w3.org/2000/svg" xmlns:xlink="http://www.w3.org/1999/xlink" xmlns:inkscape="http://www.inkscape.org/namespaces/inkscape" version="1.1" width="197" height="171" viewBox="0 0 197 171">
<defs>
<path id="font_1_1" d="M.6589966 .23046875C.6759949 .23046875 .69400027 .23046875 .69400027 .25045777 .69400027 .27046205 .6759949 .27046205 .6589966 .27046205H.117996219C.100997928 .27046205 .08299255 .27046205 .08299255 .25045777 .08299255 .23046875 .100997928 .23046875 .117996219 .23046875H.6589966Z"/>
<path id="font_2_4" d="M.2899933 .35191346C.37199403 .37893678 .42999269 .4490509 .42999269 .52809146 .42999269 .6100464 .34199525 .6660156 .24598694 .6660156 .14498902 .6660156 .068984989 .60606387 .068984989 .53009036 .068984989 .49710084 .09098816 .47808839 .11999512 .47808839 .15098572 .47808839 .17098999 .50009158 .17098999 .5290985 .17098999 .57910159 .12399292 .57910159 .10899353 .57910159 .13999939 .62802127 .20599365 .64100649 .24198914 .64100649 .2829895 .64100649 .33799745 .6190338 .33799745 .5290985 .33799745 .51708987 .33599855 .45906068 .30999757 .4149933 .27999879 .36691285 .24598694 .36390687 .22099304 .36291505 .21299744 .36190797 .18899536 .35990907 .18199158 .35990907 .17399597 .35890199 .16699219 .35791017 .16699219 .3479004 .16699219 .33691407 .17399597 .33691407 .19099427 .33691407H.23498535C.31698609 .33691407 .35398866 .2686615 .35398866 .17037964 .35398866 .034469606 .2849884 .0055389406 .24099732 .0055389406 .19799805 .0055389406 .12298584 .022491456 .08799744 .08137512 .12298584 .07637024 .1539917 .09837341 .1539917 .1363678 .1539917 .17237854 .1269989 .19238281 .09799194 .19238281 .07398987 .19238281 .041992189 .17837525 .041992189 .1343689 .041992189 .043441774 .1349945-.022460938 .24398804-.022460938 .3659973-.022460938 .45700074 .06838989 .45700074 .17037964 .45700074 .252594 .3939972 .33088685 .2899933 .35191346Z"/>
<path id="font_2_3" d="M.1269989 .07699585 .23298645 .18003845C.3889923 .31811524 .44898988 .3721466 .44898988 .47216798 .44898988 .5860901 .35899354 .6660156 .23699951 .6660156 .12399292 .6660156 .049987794 .57411196 .049987794 .48516847 .049987794 .4291687 .099990848 .4291687 .102996829 .4291687 .11999512 .4291687 .15499878 .44117738 .15499878 .48217774 .15499878 .5081787 .13699341 .5341797 .101989749 .5341797 .09399414 .5341797 .09199524 .5341797 .08898926 .5331726 .11199951 .59806826 .1659851 .63500979 .22399903 .63500979 .31498719 .63500979 .35798646 .5541382 .35798646 .47216798 .35798646 .39215089 .30799867 .31311036 .25299073 .25108338L.06098938 .036987306C.049987794 .025985718 .049987794 .023986817 .049987794 0H.42099L.44898988 .17404175H.42399598C.4189911 .14402771 .4119873 .1000061 .4019928 .084991458 .394989 .07699585 .32899476 .07699585 .30699159 .07699585H.1269989Z"/>
<path id="font_2_2" d="M.2939911 .64004519C.2939911 .66400149 .2939911 .6660156 .2709961 .6660156 .20899964 .60227969 .12098694 .60227969 .08898926 .60227969V.57128909C.10899353 .57128909 .16799927 .57128909 .21998596 .5972748V.07902527C.21998596 .042999269 .21699524 .0309906 .1269989 .0309906H.09498596V0C.12998963 .0029907227 .21699524 .0029907227 .25698854 .0029907227 .29699708 .0029907227 .38398744 .0029907227 .4189911 0V.0309906H.3869934C.29699708 .0309906 .2939911 .041992189 .2939911 .07902527V.64004519Z"/>
<path id="font_2_1" d="M.45999146 .31976319C.45999146 .39982606 .45498658 .47988893 .41999818 .5539398 .37399293 .65000918 .2919922 .6660156 .25 .6660156 .18998719 .6660156 .116989139 .64001467 .07598877 .54693606 .04399109 .47789 .038986207 .39982606 .038986207 .31976319 .038986207 .24472046 .042999269 .15464783 .083999637 .07859802 .1269989-.0024719239 .19999695-.022460938 .24899292-.022460938 .30299378-.022460938 .3789978-.0014648438 .4229889 .09359741 .45498658 .16265869 .45999146 .2407074 .45999146 .31976319M.24899292-.00047302247C.20999146-.00047302247 .15098572 .024551392 .1329956 .12062073 .12199402 .18066406 .12199402 .2727356 .12199402 .3317871 .12199402 .39582826 .12199402 .46188355 .12998963 .5159149 .14898682 .63500979 .22399903 .64401248 .24899292 .64401248 .28199769 .64401248 .34799195 .6259918 .36698915 .52693179 .3769989 .47088624 .3769989 .39482118 .3769989 .3317871 .3769989 .25672914 .3769989 .18867493 .3659973 .12461853 .35099793 .029556275 .2939911-.00047302247 .24899292-.00047302247Z"/>
<path id="font_3_1" d="M.19198609 .052993776C.19198609 .08198547 .16799927 .10598755 .13899231 .10598755 .10998535 .10598755 .085998538 .08198547 .085998538 .052993776 .085998538 .023986817 .10998535 0 .13899231 0 .16799927 0 .19198609 .023986817 .19198609 .052993776Z"/>
<path id="font_2_5" d="M.44898988 .20022583C.44898988 .3193512 .36698915 .41944886 .25898744 .41944886 .21099854 .41944886 .16799927 .40345765 .13198853 .36842347V.5637665C.1519928 .5577698 .18499756 .55078127 .21699524 .55078127 .33999635 .55078127 .4099884 .6417694 .4099884 .6547699 .4099884 .6607666 .40699769 .6657715 .3999939 .6657715 .39898683 .6657715 .39698792 .6657715 .3919983 .66278079 .37199403 .6537781 .32299806 .6337738 .2559967 .6337738 .21598816 .6337738 .16999817 .6407776 .12298584 .6617737 .114990238 .66477969 .11299133 .66477969 .11099243 .66477969 .100997928 .66477969 .100997928 .6567688 .100997928 .6407776V.34439088C.100997928 .32637025 .100997928 .31835938 .114990238 .31835938 .12199402 .31835938 .12399292 .32136537 .12799073 .32736207 .13899231 .3433838 .17599488 .39746095 .25698854 .39746095 .30899049 .39746095 .33399964 .35139466 .34199525 .33337403 .35798646 .29632569 .3600006 .25727845 .3600006 .20722962 .3600006 .17222595 .3600006 .11222839 .33599855 .07035828 .31199647 .031463624 .2749939 .0055389406 .22898865 .0055389406 .1559906 .0055389406 .09899902 .058380128 .08198547 .11723328 .084991458 .1162262 .08799744 .115234378 .09899902 .115234378 .13198853 .115234378 .14898682 .14022827 .14898682 .16423035 .14898682 .18823242 .13198853 .21322632 .09899902 .21322632 .084991458 .21322632 .049987794 .20622254 .049987794 .16023255 .049987794 .07434082 .11898804-.022460938 .23098755-.022460938 .34700013-.022460938 .44898988 .073349 .44898988 .20022583Z"/>
<clipPath id="clip_4">
<path transform="matrix(1.00006,0,0,-1.00006,-6.0441439,166.5352)" d="M7.47177 0H201.73786V161.39636H7.47177Z"/>
</clipPath>
<path id="font_3_2" d="M.33399964 .30233766C.33999635 .32835389 .36299134 .42037965 .43299867 .42037965 .43798829 .42037965 .46199037 .42037965 .48298646 .40734864 .45498658 .402359 .43499757 .37734986 .43499757 .35334779 .43499757 .33735658 .44599916 .31835938 .47299195 .31835938 .49499513 .31835938 .5269928 .3363495 .5269928 .37635804 .5269928 .42837525 .46798707 .4423828 .43399049 .4423828 .37599183 .4423828 .34098817 .38935853 .32899476 .36634828 .3039856 .43237306 .25 .4423828 .22099304 .4423828 .116989139 .4423828 .05999756 .3133545 .05999756 .28834535 .05999756 .27833558 .069992069 .27833558 .07199097 .27833558 .07998657 .27833558 .08299255 .28033448 .084991458 .28933717 .11898804 .39535523 .18499756 .42037965 .21899414 .42037965 .23799134 .42037965 .272995 .4113617 .272995 .35334779 .272995 .32235719 .2559967 .25532533 .21899414 .11528015 .20298767 .053268434 .16799927 .011245728 .12399292 .011245728 .117996219 .011245728 .09498596 .011245728 .07398987 .024276734 .09899902 .029266358 .12098694 .05027771 .12098694 .07827759 .12098694 .105270389 .09899902 .11328125 .083999637 .11328125 .053985597 .11328125 .0289917 .08728027 .0289917 .055267335 .0289917 .009246826 .07899475-.0107421879 .12298584-.0107421879 .18899536-.0107421879 .22499085 .059280397 .22799683 .0652771 .23999024 .028274537 .27598573-.0107421879 .33599855-.0107421879 .43899537-.0107421879 .49598695 .118270877 .49598695 .14328003 .49598695 .1532898 .4869995 .1532898 .48399354 .1532898 .47499085 .1532898 .47299195 .14929199 .47099305 .14228821 .43798829 .03527832 .36999513 .011245728 .33799745 .011245728 .29899598 .011245728 .2829895 .043273927 .2829895 .07727051 .2829895 .09927368 .2889862 .121276859 .2999878 .16529846L.33399964 .30233766Z"/>
<path id="font_3_3" d="M.48599244 .38136292C.48999024 .39537049 .48999024 .39736939 .48999024 .40437318 .48999024 .42237855 .47599793 .43138124 .46099855 .43138124 .45098878 .43138124 .43499757 .42536927 .42599488 .41036988 .42399598 .405365 .41600038 .37435914 .4119873 .35635377 .40499879 .33035279 .397995 .30334474 .3919983 .27633668L.34700013 .09628296C.34298707 .08126831 .2999878 .011245728 .23399353 .011245728 .18299866 .011245728 .17199707 .055267335 .17199707 .0922699 .17199707 .1382904 .18899536 .20030213 .22299195 .28833009 .23899842 .3293457 .24299622 .3403473 .24299622 .36035157 .24299622 .405365 .21099854 .4423828 .16099549 .4423828 .06599426 .4423828 .0289917 .29733277 .0289917 .28833009 .0289917 .27833558 .038986207 .27833558 .040985109 .27833558 .050994874 .27833558 .051986696 .28033448 .056991579 .29634095 .083999637 .3903656 .12399292 .42037965 .1579895 .42037965 .1659851 .42037965 .18299866 .42037965 .18299866 .3883667 .18299866 .36335755 .17298889 .3373413 .1659851 .31834413 .12599182 .21231079 .10798645 .1552887 .10798645 .10827637 .10798645 .019256592 .17098999-.0107421879 .22999573-.0107421879 .2689972-.0107421879 .30299378 .0062561037 .33099366 .03425598 .31799317-.017745972 .30599977-.06674194 .2659912-.11973572 .23999024-.15385437 .20199585-.18309021 .1559906-.18309021 .14199829-.18309021 .09700012-.18005371 .07998657-.14074707 .09599304-.14074707 .10899353-.14074707 .12298584-.1287384 .1329956-.11973572 .14299011-.10673523 .14299011-.08773804 .14299011-.056747438 .115997318-.052734376 .10598755-.052734376 .08299255-.052734376 .049987794-.068740848 .049987794-.11773682 .049987794-.16796875 .09399414-.20507813 .1559906-.20507813 .25898744-.20507813 .3619995-.11373901 .3899994-.00074768069L.48599244 .38136292Z"/>
</defs>
<path transform="matrix(1.00006,0,0,-1.00006,-6.0441439,166.5352)" stroke-width=".19925" stroke-linecap="butt" stroke-miterlimit="10" stroke-linejoin="miter" fill="none" stroke="#7f807f" d="M14.94354 38.2232V42.47495M44.83063 38.2232V42.47495M74.71771 38.2232V42.47495M134.4919 38.2232V42.47495M164.37899 38.2232V42.47495M194.26607 38.2232V42.47495"/>
<path transform="matrix(1.00006,0,0,-1.00006,-6.0441439,166.5352)" stroke-width=".19925" stroke-linecap="butt" stroke-miterlimit="10" stroke-linejoin="miter" fill="none" stroke="#7f807f" d="M102.47888 0H106.73071M102.47888 80.69818H106.73071M102.47888 121.04727H106.73071M102.47888 161.39636H106.73071"/>
<path transform="matrix(1.00006,0,0,-1.00006,-6.0441439,166.5352)" stroke-width=".3985" stroke-linecap="butt" stroke-miterlimit="10" stroke-linejoin="miter" fill="none" stroke="#000000" d="M7.47177 40.34909H199.74533"/>
<path transform="matrix(1.00006,0,0,-1.00006,193.71317,126.18369)" d="M1.99252 0-1.19551 1.59401 0 0-1.19551-1.59401"/>
<path transform="matrix(1.00006,0,0,-1.00006,-6.0441439,166.5352)" stroke-width=".3985" stroke-linecap="butt" stroke-miterlimit="10" stroke-linejoin="miter" fill="none" stroke="#000000" d="M104.60481 0V159.40384"/>
<path transform="matrix(0,-1.00006,-1.00006,-0,98.56694,7.121811)" d="M1.99252 0-1.19551 1.59401 0 0-1.19551-1.59401"/>
<use data-text="&#x2212;" xlink:href="#font_1_1" transform="matrix(9.963197,0,0,-9.963197,2.5343705,138.2505)"/>
<use data-text="3" xlink:href="#font_2_4" transform="matrix(9.963197,0,0,-9.963197,10.283836,138.2505)"/>
<use data-text="&#x2212;" xlink:href="#font_1_1" transform="matrix(9.963197,0,0,-9.963197,32.424165,138.2505)"/>
<use data-text="2" xlink:href="#font_2_3" transform="matrix(9.963197,0,0,-9.963197,40.17363,138.2505)"/>
<use data-text="&#x2212;" xlink:href="#font_1_1" transform="matrix(9.963197,0,0,-9.963197,62.31295,138.2505)"/>
<use data-text="1" xlink:href="#font_2_2" transform="matrix(9.963197,0,0,-9.963197,70.062419,138.2505)"/>
<use data-text="1" xlink:href="#font_2_2" transform="matrix(9.963197,0,0,-9.963197,125.96478,138.2505)"/>
<use data-text="2" xlink:href="#font_2_3" transform="matrix(9.963197,0,0,-9.963197,155.85356,138.2505)"/>
<use data-text="3" xlink:href="#font_2_4" transform="matrix(9.963197,0,0,-9.963197,185.74236,138.2505)"/>
<use data-text="&#x2212;" xlink:href="#font_1_1" transform="matrix(9.963197,0,0,-9.963197,72.44057,169.33037)"/>
<use data-text="0" xlink:href="#font_2_1" transform="matrix(9.963197,0,0,-9.963197,80.19003,169.33037)"/>
<use data-text="." xlink:href="#font_3_1" transform="matrix(9.963197,0,0,-9.963197,85.17133,169.33037)"/>
<use data-text="5" xlink:href="#font_2_5" transform="matrix(9.963197,0,0,-9.963197,87.93949,169.33037)"/>
<use data-text="0" xlink:href="#font_2_1" transform="matrix(9.963197,0,0,-9.963197,80.190029,89.04256)"/>
<use data-text="." xlink:href="#font_3_1" transform="matrix(9.963197,0,0,-9.963197,85.172328,89.04256)"/>
<use data-text="5" xlink:href="#font_2_5" transform="matrix(9.963197,0,0,-9.963197,87.93949,89.04256)"/>
<use data-text="1" xlink:href="#font_2_2" transform="matrix(9.963197,0,0,-9.963197,87.93949,48.69114)"/>
<use data-text="1" xlink:href="#font_2_2" transform="matrix(9.963197,0,0,-9.963197,80.190029,8.339706)"/>
<use data-text="." xlink:href="#font_3_1" transform="matrix(9.963197,0,0,-9.963197,85.172328,8.339706)"/>
<use data-text="5" xlink:href="#font_2_5" transform="matrix(9.963197,0,0,-9.963197,87.93949,8.339706)"/>
<g clip-path="url(#clip_4)">
<path transform="matrix(1.00006,0,0,-1.00006,-6.0441439,166.5352)" stroke-width=".79701" stroke-linecap="butt" stroke-miterlimit="10" stroke-linejoin="miter" fill="none" stroke="#ff0000" d="M0 45.96648 2.61511 46.07462 5.23024 46.18678 7.84535 46.30138 10.46048 46.42322 13.07559 46.54912 15.69072 46.67986 18.30583 46.81624 20.92096 46.95906 23.53607 47.10835 26.1512 47.26329 28.76631 47.42549 31.38144 47.59659 33.99655 47.77412 36.61168 47.96295 39.22679 48.15987 41.84192 48.36403 44.45703 48.58351 47.07216 48.81108 49.68727 49.05318 52.3024 49.3098 54.91753 49.57771 57.53264 49.865 60.14777 50.16924 62.76288 50.49042 65.378 50.83499 67.99312 51.20137 70.60825 51.59114 73.22336 52.00996 75.83849 52.45543 78.4536 52.93639 81.06873 53.45285 83.68384 54.00966 86.29897 54.60925 88.91408 55.25984 91.5292 55.96368 94.14432 56.72823 96.75945 57.55836 99.37456 58.4634 101.98969 59.45001 104.60481 60.52379 107.21992 61.6981 109.83505 62.97926 112.45016 64.37534 115.06529 65.89279 117.6804 67.53645 120.29553 69.30737 122.91064 71.20209 125.52577 73.21155 128.14089 75.31972 130.75601 77.50389 133.37113 79.73535 135.98625 81.98143 138.60137 84.20813 141.21649 86.3831 143.8316 88.47836 146.44673 90.47217 149.06185 92.34961 151.67697 94.10246 154.2921 95.72789 156.90721 97.22774 159.52234 98.60687 162.13745 99.87239 164.75258 101.02983 167.36769 102.09328 169.98282 103.06609 172.59793 103.96007 175.21306 104.7814 177.82817 105.53682 180.4433 106.2317 183.05841 106.87584 185.67354 107.46898 188.28865 108.01935 190.90378 108.52936 193.51889 109.00548 196.13402 109.44933 198.74913 109.8617 201.36426 110.24983 203.97939 110.61136 206.5945 110.95192 209.20963 111.27148"/>
<path transform="matrix(1.00006,0,0,-1.00006,-6.0441439,166.5352)" stroke-width=".79701" stroke-linecap="butt" stroke-miterlimit="10" stroke-linejoin="miter" fill="none" stroke="#0000ff" d="M0 43.19127 2.61511 43.24776 5.23024 43.30666 7.84535 43.36476 10.46048 43.42772 13.07559 43.49388 15.69072 43.56168 18.30583 43.63593 20.92096 43.70854 23.53607 43.78682 26.1512 43.86913 28.76631 43.95628 31.38144 44.04666 33.99655 44.13947 36.61168 44.24036 39.22679 44.34445 41.84192 44.45581 44.45703 44.57362 47.07216 44.6987 49.68727 44.83025 52.3024 44.97067 54.91753 45.11592 57.53264 45.27489 60.14777 45.44597 62.76288 45.6251 65.378 45.82042 67.99312 46.02782 70.60825 46.25215 73.22336 46.49586 75.83849 46.75652 78.4536 47.04298 81.06873 47.3553 83.68384 47.69746 86.29897 48.0719 88.91408 48.48749 91.5292 48.94908 94.14432 49.46152 96.75945 50.0377 99.37456 50.68489 101.98969 51.42006 104.60481 52.25851 107.21992 53.2269 109.83505 54.34697 112.45016 55.65462 115.06529 57.19441 117.6804 59.0161 120.29553 61.18211 122.91064 63.76244 125.52577 66.81647 128.14089 70.37534 130.75601 74.40541 133.37113 78.77525 135.98625 83.25836 138.60137 87.59164 141.21649 91.55997 143.8316 95.04695 146.44673 98.03029 149.06185 100.5475 151.67697 102.65994 154.2921 104.43748 156.90721 105.94168 159.52234 107.21881 162.13745 108.31631 164.75258 109.26291 167.36769 110.08684 169.98282 110.80989 172.59793 111.4466 175.21306 112.01309 177.82817 112.51666 180.4433 112.96855 183.05841 113.37932 185.67354 113.75053 188.28865 114.08784 190.90378 114.3945 193.51889 114.67775 196.13402 114.9376 198.74913 115.17888 201.36426 115.40001 203.97939 115.60577 206.5945 115.79784 209.20963 115.9762"/>
<path transform="matrix(1.00006,0,0,-1.00006,-6.0441439,166.5352)" stroke-width=".79701" stroke-linecap="butt" stroke-miterlimit="10" stroke-linejoin="miter" fill="none" stroke="#ff8000" d="M0 45.42015 2.61511 45.5985 5.23024 45.79056 7.84535 45.99632 10.46048 46.21745 13.07559 46.45872 15.69072 46.7186 18.30583 47.00183 20.92096 47.30849 23.53607 47.6458 26.1512 48.01703 28.76631 48.42778 31.38144 48.87967 33.99655 49.38324 36.61168 49.94974 39.22679 50.58644 41.84192 51.3095 44.45703 52.13342 47.07216 53.08003 49.68727 54.17752 52.3024 55.45465 54.91753 56.95886 57.53264 58.73639 60.14777 60.84883 62.76288 63.36604 65.378 66.34938 67.99312 69.83636 70.60825 73.80469 73.22336 78.13799 75.83849 82.6211 78.4536 86.99092 81.06873 91.021 83.68384 94.57986 86.29897 97.6339 88.91408 100.21422 91.5292 102.38023 94.14432 104.20192 96.75945 105.74171 99.37456 107.04936 101.98969 108.16945 104.60481 109.13782 107.21992 109.97627 109.83505 110.71144 112.45016 111.35863 115.06529 111.93481 117.6804 112.44725 120.29553 112.90884 122.91064 113.32443 125.52577 113.69887 128.14089 114.04103 130.75601 114.35335 133.37113 114.63982 135.98625 114.90047 138.60137 115.14418 141.21649 115.36852 143.8316 115.57593 146.44673 115.77122 149.06185 115.95036 151.67697 116.12144 154.2921 116.28041 156.90721 116.42566 159.52234 116.56609 162.13745 116.69763 164.75258 116.82271 167.36769 116.94052 169.98282 117.05188 172.59793 117.15599 175.21306 117.25687 177.82817 117.34967 180.4433 117.44005 183.05841 117.5272 185.67354 117.60953 188.28865 117.68779 190.90378 117.76042 193.51889 117.83466 196.13402 117.90245 198.74913 117.96863 201.36426 118.03157 203.97939 118.08968 206.5945 118.14859 209.20963 118.20506"/>
</g>
<use data-text="x" xlink:href="#font_3_2" transform="matrix(9.963197,0,0,-9.963197,186.5204,122.65757)"/>
<use data-text="y" xlink:href="#font_3_3" transform="matrix(9.963197,0,0,-9.963197,102.10734,12.903992)"/>
</svg>
