<svg xmlns="http://www.w3.org/2000/svg" xmlns:xlink="http://www.w3.org/1999/xlink" xmlns:inkscape="http://www.inkscape.org/namespaces/inkscape" version="1.1" width="241" height="129" viewBox="0 0 241 129">
<defs>
<path id="font_1_1" d="M.5089874 .40376283C.5079956 .40675355 .5039978 .41474916 .5039978 .41775514 .5039978 .41874696 .5219879 .43273927 .5329895 .44073487L.70799258 .5756531C.8019867 .64460757 .84098818 .64860537 .87098696 .6516113 .8789978 .65260317 .8889923 .6536102 .8889923 .6716156 .8889923 .6756134 .8860016 .6826172 .8779907 .6826172 .85598757 .6826172 .83099368 .6796112 .8069916 .6796112 .7709961 .6796112 .7319946 .6826172 .69599917 .6826172 .68899539 .6826172 .6769867 .6826172 .6769867 .6626129 .6769867 .65560916 .6819916 .65260317 .68899539 .6516113 .71099856 .6496124 .7200012 .64460757 .7200012 .63061526 .7200012 .6126251 .6899872 .5896454 .6839905 .5846405L.2939911 .28483583 .37399293 .6056366C.3829956 .6416168 .3849945 .6516113 .45799256 .6516113 .48298646 .6516113 .49198915 .6516113 .49198915 .6716156 .49198915 .680603 .48399354 .6826172 .47799684 .6826172 .44999696 .6826172 .37799073 .6796112 .34999085 .6796112 .32099916 .6796112 .25 .6826172 .22099304 .6826172 .21398926 .6826172 .20098877 .6826172 .20098877 .66360476 .20098877 .6516113 .20999146 .6516113 .22999573 .6516113 .24299622 .6516113 .26098634 .65060427 .272995 .6496124 .2889862 .6476135 .29499818 .64460757 .29499818 .6336212 .29499818 .6296234 .2939911 .62661746 .29100038 .614624L.15699768 .07795715C.14698792 .038986207 .14498902 .0309906 .06599426 .0309906 .04899597 .0309906 .037994386 .0309906 .037994386 .011993408 .037994386 0 .049987794 0 .052993776 0 .08099365 0 .1519928 .0029907227 .17999268 .0029907227 .20098877 .0029907227 .22299195 .0019989014 .24398804 .0019989014 .2659912 .0019989014 .28799439 0 .30899049 0 .31599427 0 .32899476 0 .32899476 .019989014 .32899476 .0309906 .31999208 .0309906 .30099488 .0309906 .2639923 .0309906 .23599243 .0309906 .23599243 .048980714 .23599243 .05596924 .24198914 .07795715 .24499512 .09295654 .25898744 .14492798 .27198792 .19789124 .2849884 .24986267L.43399049 .3657837 .5499878 .096954349C.56199648 .06996155 .56199648 .06796265 .56199648 .061965944 .56199648 .03199768 .5189972 .0309906 .5099945 .0309906 .49899293 .0309906 .48799134 .0309906 .48799134 .010986328 .48799134 0 .5 0 .5019989 0 .5419922 0 .58399966 .0029907227 .6239929 .0029907227 .6459961 .0029907227 .69999697 0 .7220001 0 .72698977 0 .73999026 0 .73999026 .019989014 .73999026 .0309906 .72898867 .0309906 .7200012 .0309906 .67900088 .03199768 .66600039 .040985109 .651001 .07595825L.5089874 .40376283Z"/>
<clipPath id="clip_2">
<path transform="matrix(1.00003,0,0,-1,-20.280053,152.656)" d="M21.69397 25.6174H260.3278V150.85816H21.69397Z"/>
</clipPath>
<path id="font_1_2" d="M.33399964 .30233766C.33999635 .32835389 .36299134 .42037965 .43299867 .42037965 .43798829 .42037965 .46199037 .42037965 .48298646 .40734864 .45498658 .402359 .43499757 .37734986 .43499757 .35334779 .43499757 .33735658 .44599916 .31835938 .47299195 .31835938 .49499513 .31835938 .5269928 .3363495 .5269928 .37635804 .5269928 .42837525 .46798707 .4423828 .43399049 .4423828 .37599183 .4423828 .34098817 .38935853 .32899476 .36634828 .3039856 .43237306 .25 .4423828 .22099304 .4423828 .116989139 .4423828 .05999756 .3133545 .05999756 .28834535 .05999756 .27833558 .069992069 .27833558 .07199097 .27833558 .07998657 .27833558 .08299255 .28033448 .084991458 .28933717 .11898804 .39535523 .18499756 .42037965 .21899414 .42037965 .23799134 .42037965 .272995 .4113617 .272995 .35334779 .272995 .32235719 .2559967 .25532533 .21899414 .11528015 .20298767 .053268434 .16799927 .011245728 .12399292 .011245728 .117996219 .011245728 .09498596 .011245728 .07398987 .024276734 .09899902 .029266358 .12098694 .05027771 .12098694 .07827759 .12098694 .105270389 .09899902 .11328125 .083999637 .11328125 .053985597 .11328125 .0289917 .08728027 .0289917 .055267335 .0289917 .009246826 .07899475-.0107421879 .12298584-.0107421879 .18899536-.0107421879 .22499085 .059280397 .22799683 .0652771 .23999024 .028274537 .27598573-.0107421879 .33599855-.0107421879 .43899537-.0107421879 .49598695 .118270877 .49598695 .14328003 .49598695 .1532898 .4869995 .1532898 .48399354 .1532898 .47499085 .1532898 .47299195 .14929199 .47099305 .14228821 .43798829 .03527832 .36999513 .011245728 .33799745 .011245728 .29899598 .011245728 .2829895 .043273927 .2829895 .07727051 .2829895 .09927368 .2889862 .121276859 .2999878 .16529846L.33399964 .30233766Z"/>
<path id="font_1_3" d="M.48599244 .38136292C.48999024 .39537049 .48999024 .39736939 .48999024 .40437318 .48999024 .42237855 .47599793 .43138124 .46099855 .43138124 .45098878 .43138124 .43499757 .42536927 .42599488 .41036988 .42399598 .405365 .41600038 .37435914 .4119873 .35635377 .40499879 .33035279 .397995 .30334474 .3919983 .27633668L.34700013 .09628296C.34298707 .08126831 .2999878 .011245728 .23399353 .011245728 .18299866 .011245728 .17199707 .055267335 .17199707 .0922699 .17199707 .1382904 .18899536 .20030213 .22299195 .28833009 .23899842 .3293457 .24299622 .3403473 .24299622 .36035157 .24299622 .405365 .21099854 .4423828 .16099549 .4423828 .06599426 .4423828 .0289917 .29733277 .0289917 .28833009 .0289917 .27833558 .038986207 .27833558 .040985109 .27833558 .050994874 .27833558 .051986696 .28033448 .056991579 .29634095 .083999637 .3903656 .12399292 .42037965 .1579895 .42037965 .1659851 .42037965 .18299866 .42037965 .18299866 .3883667 .18299866 .36335755 .17298889 .3373413 .1659851 .31834413 .12599182 .21231079 .10798645 .1552887 .10798645 .10827637 .10798645 .019256592 .17098999-.0107421879 .22999573-.0107421879 .2689972-.0107421879 .30299378 .0062561037 .33099366 .03425598 .31799317-.017745972 .30599977-.06674194 .2659912-.11973572 .23999024-.15385437 .20199585-.18309021 .1559906-.18309021 .14199829-.18309021 .09700012-.18005371 .07998657-.14074707 .09599304-.14074707 .10899353-.14074707 .12298584-.1287384 .1329956-.11973572 .14299011-.10673523 .14299011-.08773804 .14299011-.056747438 .115997318-.052734376 .10598755-.052734376 .08299255-.052734376 .049987794-.068740848 .049987794-.11773682 .049987794-.16796875 .09399414-.20507813 .1559906-.20507813 .25898744-.20507813 .3619995-.11373901 .3899994-.00074768069L.48599244 .38136292Z"/>
</defs>
<path transform="matrix(1.00003,0,0,-1,-20.280053,152.656)" stroke-width=".19925" stroke-linecap="butt" stroke-miterlimit="10" stroke-linejoin="miter" fill="none" stroke="#7f807f" d="M216.93982 34.87697V39.12889"/>
<path transform="matrix(1.00003,0,0,-1,-20.280053,152.656)" stroke-width=".19925" stroke-linecap="butt" stroke-miterlimit="10" stroke-linejoin="miter" fill="none" stroke="#7f807f" d=""/>
<path transform="matrix(1.00003,0,0,-1,-20.280053,152.656)" stroke-width=".3985" stroke-linecap="butt" stroke-miterlimit="10" stroke-linejoin="miter" fill="none" stroke="#000000" d="M21.69397 37.00293H258.33528"/>
<path transform="matrix(1.00003,0,0,-1,238.06296,115.653079)" d="M1.99252 0-1.19551 1.59401 0 0-1.19551-1.59401"/>
<path transform="matrix(1.00003,0,0,-1,-20.280053,152.656)" stroke-width=".3985" stroke-linecap="butt" stroke-miterlimit="10" stroke-linejoin="miter" fill="none" stroke="#000000" d="M43.38795 25.6174V148.86563"/>
<path transform="matrix(0,-1,-1.00003,-0,23.109204,3.7903748)" d="M1.99252 0-1.19551 1.59401 0 0-1.19551-1.59401"/>
<use data-text="K" xlink:href="#font_1_1" transform="matrix(9.962899,0,0,-9.9626,192.07932,128.10701)"/>
<g clip-path="url(#clip_2)">
<path transform="matrix(1.00003,0,0,-1,-20.280053,152.656)" stroke-width=".79701" stroke-linecap="butt" stroke-miterlimit="10" stroke-linejoin="miter" fill="none" stroke="#0000ff" d="M0 0 2.60327 2.38069 5.20654 4.7409 7.80983 7.08063 10.4131 9.39987 13.01639 11.69861 15.61966 13.97684 18.22293 16.2346 20.82622 18.47186 23.42949 20.68863 26.03278 22.88489 28.63605 25.06065 31.23933 27.21594 33.8426 29.35072 36.44588 31.46501 39.04916 33.55882 41.65244 35.63211 44.25572 37.68492 46.859 39.71724 49.46228 41.72906 52.06555 43.7204 54.66882 45.69122 57.27211 47.64157 59.87538 49.57141 62.47867 51.48076 65.08194 53.36963 67.68523 55.23798 70.2885 57.08585 72.89177 58.91322 75.49506 60.72011 78.09833 62.5065 80.70161 64.27238 83.30489 66.01779 85.90817 67.7427 88.51144 69.44711 91.11472 71.13104 93.718 72.79445 96.32127 74.4374 98.92456 76.05983 101.52783 77.66176 104.13112 79.24323 106.73439 80.80417 109.33766 82.34462 111.94095 83.8646 114.54422 85.36407 117.1475 86.84306 119.75078 88.30153 122.35406 89.73953 124.95734 91.15703 127.56061 92.55403 130.1639 93.93054 132.76717 95.28656 135.37046 96.62209 137.97373 97.9371 140.57701 99.23163 143.18029 100.50568 145.78356 101.75922 148.38684 102.99228 150.99011 104.20483 153.5934 105.3969 156.19667 106.56848 158.79996 107.71954 161.40323 108.85014 164.0065 109.9602 166.60979 111.0498 169.21306 112.11891 171.81635 113.16751 174.41962 114.19563 177.02289 115.20325 179.62618 116.19037 182.22945 117.157 184.83274 118.10313 187.436 119.0288 190.03929 119.93393 192.64257 120.8186 195.24584 121.68275 197.84912 122.5264 200.4524 123.3496 203.05568 124.15227 205.65895 124.93446 208.26224 125.69615 210.86551 126.43733 213.46878 127.15805 216.07207 127.85825 218.67534 128.53798 221.27863 129.1972 223.8819 129.8359 226.48519 130.45417 229.08846 131.05188 231.69173 131.62915 234.29502 132.1859 236.89829 132.72214 239.50157 133.23793 242.10485 133.73319 244.70813 134.20796 247.3114 134.66225 249.91468 135.09603 252.51796 135.50934 255.12123 135.90212 257.72453 136.27445 260.3278 136.62625"/>
<path transform="matrix(1.00003,0,0,-1,-20.280053,152.656)" stroke-width=".3985" stroke-linecap="butt" stroke-miterlimit="10" stroke-linejoin="miter" fill="none" stroke="#000000" d="M0 14.23189 2.60327 15.59814 5.20654 16.96442 7.80983 18.33067 10.4131 19.69693 13.01639 21.0632 15.61966 22.42946 18.22293 23.79573 20.82622 25.16199 23.42949 26.52824 26.03278 27.89452 28.63605 29.26077 31.23933 30.62704 33.8426 31.9933 36.44588 33.35956 39.04916 34.72583 41.65244 36.09209 44.25572 37.45836 46.859 38.82462 49.46228 40.19087 52.06555 41.55714 54.66882 42.9234 57.27211 44.28966 59.87538 45.65593 62.47867 47.02219 65.08194 48.38846 67.68523 49.75471 70.2885 51.12097 72.89177 52.48724 75.49506 53.8535 78.09833 55.21977 80.70161 56.58603 83.30489 57.95229 85.90817 59.31856 88.51144 60.68481 91.11472 62.05107 93.718 63.41734 96.32127 64.7836 98.92456 66.14987 101.52783 67.51613 104.13112 68.88239 106.73439 70.24866 109.33766 71.61491 111.94095 72.98119 114.54422 74.34744 117.1475 75.7137 119.75078 77.07997 122.35406 78.44623 124.95734 79.81248 127.56061 81.17876 130.1639 82.54501 132.76717 83.91129 135.37046 85.27754 137.97373 86.6438 140.57701 88.01007 143.18029 89.37633 145.78356 90.7426 148.38684 92.10886 150.99011 93.47511 153.5934 94.84138 156.19667 96.20764 158.79996 97.5739 161.40323 98.94017 164.0065 100.30643 166.60979 101.6727 169.21306 103.03896 171.81635 104.40521 174.41962 105.77148 177.02289 107.13774 179.62618 108.50401 182.22945 109.87027 184.83274 111.23653 187.436 112.6028 190.03929 113.96906 192.64257 115.33533 195.24584 116.70158 197.84912 118.06784 200.4524 119.43411 203.05568 120.80037 205.65895 122.16663 208.26224 123.5329 210.86551 124.89915 213.46878 126.26543 216.07207 127.63168 218.67534 128.99794 221.27863 130.36421 223.8819 131.73047 226.48519 133.09674 229.08846 134.463 231.69173 135.82926 234.29502 137.19553 236.89829 138.56179 239.50157 139.92804 242.10485 141.29431 244.70813 142.66057 247.3114 144.02684 249.91468 145.3931 252.51796 146.75936 255.12123 148.12563 257.72453 149.49188 260.3278 150.85816"/>
</g>
<use data-text="x" xlink:href="#font_1_2" transform="matrix(9.962899,0,0,-9.9626,230.90149,112.12401)"/>
<use data-text="y" xlink:href="#font_1_3" transform="matrix(9.962899,0,0,-9.9626,26.636357,9.573013)"/>
</svg>
